<?xml version="1.0" encoding="UTF-8" standalone="no"?>
<!-- Generator: Adobe Illustrator 18.0.0, SVG Export Plug-In . SVG Version: 6.00 Build 0)  -->

<svg
   xmlns:dc="http://purl.org/dc/elements/1.1/"
   xmlns:cc="http://creativecommons.org/ns#"
   xmlns:rdf="http://www.w3.org/1999/02/22-rdf-syntax-ns#"
   xmlns:svg="http://www.w3.org/2000/svg"
   xmlns="http://www.w3.org/2000/svg"
   xmlns:sodipodi="http://sodipodi.sourceforge.net/DTD/sodipodi-0.dtd"
   xmlns:inkscape="http://www.inkscape.org/namespaces/inkscape"
   version="1.1"
   x="0px"
   y="0px"
   viewBox="0 0 230 215"
   style="enable-background:new 0 0 230 215;"
   xml:space="preserve"
   id="svg234"
   sodipodi:docname="retro_clock_fixed.svg"
   inkscape:version="0.92.4 (5da689c313, 2019-01-14)"><defs
   id="defs238" /><sodipodi:namedview
   pagecolor="#ffffff"
   bordercolor="#666666"
   borderopacity="1"
   objecttolerance="10"
   gridtolerance="10"
   guidetolerance="10"
   inkscape:pageopacity="0"
   inkscape:pageshadow="2"
   inkscape:window-width="1920"
   inkscape:window-height="1017"
   id="namedview236"
   showgrid="false"
   inkscape:zoom="3"
   inkscape:cx="115"
   inkscape:cy="107.5"
   inkscape:window-x="-8"
   inkscape:window-y="-8"
   inkscape:window-maximized="1"
   inkscape:current-layer="Layer_1" />
<style
   type="text/css"
   id="style2">
	.st0{fill:url(#SVGID_1_);stroke:#000000;stroke-miterlimit:10;}
	.st1{fill:url(#SVGID_2_);stroke:#000000;stroke-width:0.25;stroke-miterlimit:10;}
	.st2{fill:none;stroke:#000000;stroke-linecap:round;stroke-miterlimit:10;}
	.st3{fill:#1A1A1A;}
</style>
<g
   id="Layer_1">
	<radialGradient
   id="SVGID_1_"
   cx="115.4672"
   cy="107.4124"
   r="105.5036"
   gradientUnits="userSpaceOnUse">
		<stop
   offset="0.8865"
   style="stop-color:#42210B"
   id="stop4" />
		<stop
   offset="1"
   style="stop-color:#754C24"
   id="stop6" />
	</radialGradient>
	<path
   class="st0"
   d="M221,107.4c0,58.3-47.2,105.5-105.5,105.5S10,165.7,10,107.4S57.2,1.9,115.5,1.9S221,49.1,221,107.4z    M209,107.4c0-51.6-41.9-93.5-93.5-93.5C63.9,13.9,22,55.9,22,107.4s41.9,93.5,93.5,93.5C167,200.9,209,159,209,107.4z"
   id="path9" />
	<radialGradient
   id="SVGID_2_"
   cx="115.467"
   cy="107.4124"
   r="102.5037"
   gradientUnits="userSpaceOnUse">
		<stop
   offset="0.9413"
   style="stop-color:#42210B"
   id="stop11" />
		<stop
   offset="0.9708"
   style="stop-color:#754C24"
   id="stop13" />
		<stop
   offset="1"
   style="stop-color:#42210B"
   id="stop15" />
	</radialGradient>
	<path
   class="st1"
   d="M115.5,209.9c-56.5,0-102.5-46-102.5-102.5S58.9,4.9,115.5,4.9S218,50.9,218,107.4S172,209.9,115.5,209.9z    M212,107.4c0-53.2-43.3-96.5-96.5-96.5C62.3,10.9,19,54.2,19,107.4s43.3,96.5,96.5,96.5C168.7,203.9,212,160.6,212,107.4z"
   id="path18" />
	<g
   id="_x35__min">
		<line
   class="st2"
   x1="115.5"
   y1="13.9"
   x2="115.5"
   y2="18.9"
   id="line20" />
		<line
   class="st2"
   x1="68.7"
   y1="26.4"
   x2="71.2"
   y2="30.8"
   id="line22" />
		<line
   class="st2"
   x1="34.5"
   y1="60.7"
   x2="38.8"
   y2="63.2"
   id="line24" />
		<line
   class="st2"
   x1="22"
   y1="107.4"
   x2="27"
   y2="107.4"
   id="line26" />
		<line
   class="st2"
   x1="34.5"
   y1="154.2"
   x2="38.8"
   y2="151.7"
   id="line28" />
		<line
   class="st2"
   x1="68.7"
   y1="188.4"
   x2="71.2"
   y2="184.1"
   id="line30" />
		<line
   class="st2"
   x1="115.5"
   y1="200.9"
   x2="115.5"
   y2="195.9"
   id="line32" />
		<line
   class="st2"
   x1="162.2"
   y1="188.4"
   x2="159.7"
   y2="184.1"
   id="line34" />
		<line
   class="st2"
   x1="196.4"
   y1="154.2"
   x2="192.1"
   y2="151.7"
   id="line36" />
		<line
   class="st2"
   x1="209"
   y1="107.4"
   x2="204"
   y2="107.4"
   id="line38" />
		<line
   class="st2"
   x1="196.4"
   y1="60.7"
   x2="192.1"
   y2="63.2"
   id="line40" />
		<line
   class="st2"
   x1="162.2"
   y1="26.4"
   x2="159.7"
   y2="30.8"
   id="line42" />
	</g>
	<g
   id="_x31__min">
		<line
   class="st2"
   x1="105.7"
   y1="14.4"
   x2="106"
   y2="16.9"
   id="line45" />
		<line
   class="st2"
   x1="96"
   y1="16"
   x2="96.5"
   y2="18.4"
   id="line47" />
		<line
   class="st2"
   x1="86.6"
   y1="18.5"
   x2="87.3"
   y2="20.9"
   id="line49" />
		<line
   class="st2"
   x1="77.4"
   y1="22"
   x2="78.5"
   y2="24.3"
   id="line51" />
		<line
   class="st2"
   x1="60.5"
   y1="31.8"
   x2="62"
   y2="33.8"
   id="line53" />
		<line
   class="st2"
   x1="52.9"
   y1="37.9"
   x2="54.6"
   y2="39.8"
   id="line55" />
		<line
   class="st2"
   x1="46"
   y1="44.8"
   x2="47.8"
   y2="46.5"
   id="line57" />
		<line
   class="st2"
   x1="39.8"
   y1="52.5"
   x2="41.8"
   y2="53.9"
   id="line59" />
		<line
   class="st2"
   x1="30"
   y1="69.4"
   x2="32.3"
   y2="70.4"
   id="line61" />
		<line
   class="st2"
   x1="26.5"
   y1="78.5"
   x2="28.9"
   y2="79.3"
   id="line63" />
		<line
   class="st2"
   x1="24"
   y1="88"
   x2="26.5"
   y2="88.5"
   id="line65" />
		<line
   class="st2"
   x1="22.5"
   y1="97.6"
   x2="25"
   y2="97.9"
   id="line67" />
		<line
   class="st2"
   x1="22.5"
   y1="117.2"
   x2="25"
   y2="116.9"
   id="line69" />
		<line
   class="st2"
   x1="24"
   y1="126.9"
   x2="26.5"
   y2="126.3"
   id="line71" />
		<line
   class="st2"
   x1="26.5"
   y1="136.3"
   x2="28.9"
   y2="135.5"
   id="line73" />
		<line
   class="st2"
   x1="30"
   y1="145.4"
   x2="32.3"
   y2="144.4"
   id="line75" />
		<line
   class="st2"
   x1="39.8"
   y1="162.4"
   x2="41.8"
   y2="160.9"
   id="line77" />
		<line
   class="st2"
   x1="46"
   y1="170"
   x2="47.8"
   y2="168.3"
   id="line79" />
		<line
   class="st2"
   x1="52.9"
   y1="176.9"
   x2="54.6"
   y2="175"
   id="line81" />
		<line
   class="st2"
   x1="60.5"
   y1="183.1"
   x2="62"
   y2="181"
   id="line83" />
		<line
   class="st2"
   x1="77.4"
   y1="192.8"
   x2="78.5"
   y2="190.5"
   id="line85" />
		<line
   class="st2"
   x1="86.6"
   y1="196.3"
   x2="87.3"
   y2="194"
   id="line87" />
		<line
   class="st2"
   x1="96"
   y1="198.9"
   x2="96.5"
   y2="196.4"
   id="line89" />
		<line
   class="st2"
   x1="105.7"
   y1="200.4"
   x2="106"
   y2="197.9"
   id="line91" />
		<line
   class="st2"
   x1="125.2"
   y1="200.4"
   x2="125"
   y2="197.9"
   id="line93" />
		<line
   class="st2"
   x1="134.9"
   y1="198.9"
   x2="134.4"
   y2="196.4"
   id="line95" />
		<line
   class="st2"
   x1="144.4"
   y1="196.3"
   x2="143.6"
   y2="194"
   id="line97" />
		<line
   class="st2"
   x1="153.5"
   y1="192.8"
   x2="152.5"
   y2="190.5"
   id="line99" />
		<line
   class="st2"
   x1="170.4"
   y1="183.1"
   x2="169"
   y2="181"
   id="line101" />
		<line
   class="st2"
   x1="178"
   y1="176.9"
   x2="176.4"
   y2="175"
   id="line103" />
		<line
   class="st2"
   x1="185"
   y1="170"
   x2="183.1"
   y2="168.3"
   id="line105" />
		<line
   class="st2"
   x1="191.1"
   y1="162.4"
   x2="189.1"
   y2="160.9"
   id="line107" />
		<line
   class="st2"
   x1="200.9"
   y1="145.4"
   x2="198.6"
   y2="144.4"
   id="line109" />
		<line
   class="st2"
   x1="204.4"
   y1="136.3"
   x2="202"
   y2="135.5"
   id="line111" />
		<line
   class="st2"
   x1="206.9"
   y1="126.9"
   x2="204.5"
   y2="126.3"
   id="line113" />
		<line
   class="st2"
   x1="208.5"
   y1="117.2"
   x2="206"
   y2="116.9"
   id="line115" />
		<line
   class="st2"
   x1="208.5"
   y1="97.6"
   x2="206"
   y2="97.9"
   id="line117" />
		<line
   class="st2"
   x1="206.9"
   y1="88"
   x2="204.5"
   y2="88.5"
   id="line119" />
		<line
   class="st2"
   x1="204.4"
   y1="78.5"
   x2="202"
   y2="79.3"
   id="line121" />
		<line
   class="st2"
   x1="200.9"
   y1="69.4"
   x2="198.6"
   y2="70.4"
   id="line123" />
		<line
   class="st2"
   x1="191.1"
   y1="52.5"
   x2="189.1"
   y2="53.9"
   id="line125" />
		<line
   class="st2"
   x1="185"
   y1="44.8"
   x2="183.1"
   y2="46.5"
   id="line127" />
		<line
   class="st2"
   x1="178"
   y1="37.9"
   x2="176.4"
   y2="39.8"
   id="line129" />
		<line
   class="st2"
   x1="170.4"
   y1="31.8"
   x2="169"
   y2="33.8"
   id="line131" />
		<line
   class="st2"
   x1="153.5"
   y1="22"
   x2="152.5"
   y2="24.3"
   id="line133" />
		<line
   class="st2"
   x1="144.4"
   y1="18.5"
   x2="143.6"
   y2="20.9"
   id="line135" />
		<line
   class="st2"
   x1="134.9"
   y1="16"
   x2="134.4"
   y2="18.4"
   id="line137" />
		<line
   class="st2"
   x1="125.2"
   y1="14.4"
   x2="125"
   y2="16.9"
   id="line139" />
	</g>
	<g
   id="g148">
		<path
   d="M107.5,35.6c0,0.1,0,0.1-0.1,0.1c-0.2,0-0.8,0-2.1,0c-0.9,0-1.6,0-1.7,0c-0.1,0-0.1-0.1-0.1-0.1v-0.4c0-0.1,0-0.1,0.1-0.1    h0.6c0.3,0,0.6-0.2,0.9-0.5c1-0.9,2.8-3.7,3.6-4.7c-0.6-0.8-3-4.4-3.3-4.8c-0.1-0.1-0.4-0.2-0.7-0.2H104c-0.1,0-0.1-0.1-0.1-0.1    v-0.4c0-0.1,0-0.1,0.1-0.1c0.2,0,0.9,0,2.3,0c1.6,0,2.3,0,2.4,0c0.1,0,0.1,0.1,0.1,0.1v0.4c0,0.1,0,0.1-0.1,0.1h-0.6    c-0.7,0-0.7,0.4-0.5,0.8c0.1,0.2,1.6,2.7,2,3.2c0.4-0.6,2.3-3,2.4-3.3c0.2-0.3,0.1-0.7-0.3-0.7h-0.3c-0.1,0-0.1-0.1-0.1-0.1v-0.4    c0-0.1,0-0.1,0.1-0.1c0.2,0,0.8,0,1.7,0c0.9,0,1.5,0,1.6,0c0.1,0,0.1,0.1,0.1,0.1v0.4c0,0.1,0,0.1-0.1,0.1h-0.7    c-0.4,0-0.5,0.1-0.7,0.2c-0.3,0.2-2.8,3.5-3.5,4.3c0.2,0.3,3.3,5.1,3.5,5.3c0.4,0.3,0.8,0.4,1.1,0.4h0.5c0.1,0,0.1,0,0.1,0.1v0.4    c0,0.1,0,0.1-0.1,0.1c-0.1,0-0.7,0-2,0c-1.3,0-2.1,0-2.3,0c-0.1,0-0.1,0-0.1-0.1v-0.4c0-0.1,0-0.1,0.1-0.1h0.6    c0.3,0,0.5-0.1,0.4-0.3c-0.1-0.2-2.3-3.8-2.6-4.3c-0.6,0.9-2.5,3.6-2.6,3.9c-0.2,0.4-0.1,0.7,0.3,0.7h0.6c0.1,0,0.1,0,0.1,0.1    V35.6z"
   id="path142" />
		<path
   d="M117.3,29c0-0.4,0-3.3-0.1-3.5c0-0.4-0.2-0.5-0.8-0.5h-0.9c-0.1,0-0.1,0-0.1-0.1v-0.4c0-0.1,0-0.1,0.1-0.1    c0.2,0,1,0,2.5,0c1.4,0,1.9,0,2.2,0c0.1,0,0.1,0,0.1,0.1v0.4c0,0.1,0,0.1-0.1,0.1h-0.8c-0.3,0-0.6,0.1-0.6,0.4c0,0.2,0,3.7,0,3.9    v1.2c0,0.2,0,3.9,0,4c0,0.5,0.2,0.6,0.8,0.6h0.7c0.1,0,0.1,0,0.1,0.1v0.4c0,0.1,0,0.1-0.1,0.1c-0.2,0-0.8,0-2.2,0    c-1.5,0-2.2,0-2.4,0c-0.1,0-0.1,0-0.1-0.1v-0.4c0-0.1,0-0.1,0.1-0.1h0.9c0.3,0,0.7,0,0.7-0.5c0-0.2,0.1-3.7,0.1-4.5V29z"
   id="path144" />
		<path
   d="M123.4,29c0-0.4,0-3.3-0.1-3.5c0-0.4-0.2-0.5-0.8-0.5h-0.9c-0.1,0-0.1,0-0.1-0.1v-0.4c0-0.1,0-0.1,0.1-0.1    c0.2,0,1,0,2.5,0c1.4,0,1.9,0,2.2,0c0.1,0,0.1,0,0.1,0.1v0.4c0,0.1,0,0.1-0.1,0.1h-0.8c-0.3,0-0.6,0.1-0.6,0.4c0,0.2,0,3.7,0,3.9    v1.2c0,0.2,0,3.9,0,4c0,0.5,0.2,0.6,0.8,0.6h0.7c0.1,0,0.1,0,0.1,0.1v0.4c0,0.1,0,0.1-0.1,0.1c-0.2,0-0.8,0-2.2,0    c-1.5,0-2.2,0-2.4,0c-0.1,0-0.1,0-0.1-0.1v-0.4c0-0.1,0-0.1,0.1-0.1h0.9c0.3,0,0.7,0,0.7-0.5c0-0.2,0.1-3.7,0.1-4.5V29z"
   id="path146" />
	</g>
	
	
	<g
   id="g170">
		<path
   d="M37,113.7c-0.4,0-3.3,0-3.5,0.1c-0.4,0-0.5,0.2-0.5,0.8v0.9c0,0.1,0,0.1-0.1,0.1h-0.4c-0.1,0-0.1,0-0.1-0.1    c0-0.2,0-1,0-2.5c0-1.4,0-1.9,0-2.2c0-0.1,0-0.1,0.1-0.1h0.4c0.1,0,0.1,0,0.1,0.1v0.8c0,0.3,0.1,0.6,0.4,0.6c0.2,0,3.7,0,3.9,0    h1.2c0.2,0,3.9,0,4,0c0.5,0,0.6-0.2,0.6-0.8v-0.7c0-0.1,0-0.1,0.1-0.1h0.4c0.1,0,0.1,0,0.1,0.1c0,0.2,0,0.8,0,2.2    c0,1.5,0,2.2,0,2.4c0,0.1,0,0.1-0.1,0.1h-0.4c-0.1,0-0.1,0-0.1-0.1v-0.9c0-0.3,0-0.7-0.5-0.7c-0.2,0-3.7-0.1-4.5-0.1H37z"
   id="path166" />
		<path
   d="M43.6,106.4c0.1,0,0.1,0,0.1,0.1c0,0.2,0,0.8,0,2.1c0,0.9,0,1.6,0,1.7c0,0.1-0.1,0.1-0.1,0.1h-0.4c-0.1,0-0.1,0-0.1-0.1    v-0.6c0-0.3-0.2-0.6-0.5-0.9c-0.9-1-3.7-2.8-4.7-3.6c-0.8,0.6-4.4,3-4.8,3.3c-0.1,0.1-0.2,0.4-0.2,0.7v0.7c0,0.1-0.1,0.1-0.1,0.1    h-0.4c-0.1,0-0.1,0-0.1-0.1c0-0.2,0-0.9,0-2.3c0-1.6,0-2.3,0-2.4c0-0.1,0.1-0.1,0.1-0.1h0.4c0.1,0,0.1,0,0.1,0.1v0.6    c0,0.7,0.4,0.7,0.8,0.5c0.2-0.1,2.7-1.6,3.2-2c-0.6-0.4-3-2.3-3.3-2.4c-0.3-0.2-0.7-0.1-0.7,0.3v0.3c0,0.1-0.1,0.1-0.1,0.1h-0.4    c-0.1,0-0.1,0-0.1-0.1c0-0.2,0-0.8,0-1.7c0-0.9,0-1.5,0-1.6c0-0.1,0.1-0.1,0.1-0.1h0.4c0.1,0,0.1,0,0.1,0.1v0.7    c0,0.4,0.1,0.5,0.2,0.7c0.2,0.3,3.5,2.8,4.3,3.5c0.3-0.2,5.1-3.3,5.3-3.5c0.3-0.4,0.4-0.8,0.4-1.1v-0.5c0-0.1,0-0.1,0.1-0.1h0.4    c0.1,0,0.1,0,0.1,0.1c0,0.1,0,0.7,0,2c0,1.3,0,2.1,0,2.3c0,0.1,0,0.1-0.1,0.1h-0.4c-0.1,0-0.1,0-0.1-0.1v-0.6    c0-0.3-0.1-0.5-0.3-0.4c-0.2,0.1-3.8,2.3-4.3,2.6c0.9,0.6,3.6,2.5,3.9,2.6c0.4,0.2,0.7,0.1,0.7-0.3v-0.6c0-0.1,0-0.1,0.1-0.1H43.6    z"
   id="path168" />
	</g>
	<g
   id="g180">
		<path
   d="M44.1,131.1c0.1,0,0.1,0,0.2,0c0.1,0.1,0.3,0.6,0.9,1.7c0.7,1.2,1.1,1.8,1.1,1.9c0.1,0.1,0,0.2,0,0.2l-0.3,0.2    c-0.1,0-0.1,0.1-0.2,0l-0.4-0.7c-0.2-0.4-0.5-0.5-0.7-0.4c-0.1,0.1-0.3,0.2-0.4,0.3c-0.5,0.4-1.8,1.8-2.4,2.5    c-0.4,0.5-2.4,2.7-3,3.5l0,0c0.8-0.1,4.3-0.7,4.7-0.7c0.5-0.1,2.4-0.5,3.1-0.6c0.4-0.1,0.7-0.2,0.9-0.3c0.2-0.1,0.3-0.3,0.1-0.6    l-0.2-0.4c0-0.1,0-0.1,0.1-0.1l0.3-0.2c0.1,0,0.1,0,0.1,0c0.1,0.1,0.4,0.8,0.9,1.7c0.6,1,0.8,1.3,0.9,1.5c0,0.1,0,0.1,0,0.2    l-0.3,0.2c-0.1,0-0.1,0-0.2,0l-0.2-0.4c-0.3-0.5-0.6-0.6-1.1-0.7c-0.7-0.1-4.1,0.4-4.9,0.5c-0.6,0.1-6,0.9-6.2,0.9    c-0.1,0-0.3,0-0.3-0.1c-0.1-0.1,0-0.2,0.2-0.4c1-1.2,3.5-4.1,3.9-4.6l0.4-0.4c0.8-0.9,2.4-2.7,2.7-3.1c0.2-0.3,0.3-0.5,0.1-0.8    l-0.2-0.4c0-0.1,0-0.1,0.1-0.1L44.1,131.1z"
   id="path172" />
		<path
   d="M46.7,144.7c0.3-0.2,2.8-1.7,3-1.8c0.3-0.2,0.4-0.4,0.1-1l-0.5-0.8c0-0.1,0-0.1,0-0.2l0.4-0.2c0.1,0,0.1,0,0.1,0    c0.1,0.2,0.5,0.9,1.2,2.2c0.7,1.2,1,1.7,1.1,1.8c0,0.1,0,0.1,0,0.2l-0.3,0.2c-0.1,0-0.1,0-0.2-0.1l-0.4-0.7    c-0.2-0.3-0.4-0.4-0.7-0.3c-0.1,0.1-3.2,1.8-3.4,1.9l-1.1,0.6c-0.1,0.1-3.3,2-3.5,2.1c-0.4,0.2-0.4,0.5-0.1,0.9l0.3,0.6    c0,0.1,0,0.1,0,0.2l-0.4,0.2c-0.1,0-0.1,0-0.2-0.1c-0.1-0.2-0.4-0.7-1.1-2c-0.8-1.3-1.1-1.9-1.2-2c0-0.1,0-0.1,0-0.2l0.4-0.2    c0.1,0,0.1,0,0.1,0.1l0.4,0.8c0.2,0.3,0.4,0.5,0.8,0.4c0.2-0.1,3.2-1.8,4-2.2L46.7,144.7z"
   id="path174" />
		<path
   d="M49.8,150c0.3-0.2,2.8-1.7,3-1.8c0.3-0.2,0.4-0.4,0.1-1l-0.5-0.8c0-0.1,0-0.1,0-0.2l0.4-0.2c0.1,0,0.1,0,0.1,0    c0.1,0.2,0.5,0.9,1.2,2.2c0.7,1.2,1,1.7,1.1,1.8c0,0.1,0,0.1,0,0.2l-0.3,0.2c-0.1,0-0.1,0-0.2-0.1l-0.4-0.7    c-0.2-0.3-0.4-0.4-0.7-0.3c-0.1,0.1-3.2,1.8-3.4,1.9l-1.1,0.6c-0.1,0.1-3.3,2-3.5,2.1c-0.4,0.2-0.4,0.5-0.1,0.9l0.3,0.6    c0,0.1,0,0.1,0,0.2l-0.4,0.2c-0.1,0-0.1,0-0.2-0.1c-0.1-0.2-0.4-0.7-1.1-2c-0.8-1.3-1.1-1.9-1.2-2c0-0.1,0-0.1,0-0.2l0.4-0.2    c0.1,0,0.1,0,0.1,0.1l0.4,0.8c0.2,0.3,0.4,0.5,0.8,0.4c0.2-0.1,3.2-1.8,4-2.2L49.8,150z"
   id="path176" />
		<path
   d="M52.8,155.3c0.3-0.2,2.8-1.7,3-1.8c0.3-0.2,0.4-0.4,0.1-1l-0.5-0.8c0-0.1,0-0.1,0-0.2l0.4-0.2c0.1,0,0.1,0,0.1,0    c0.1,0.2,0.5,0.9,1.2,2.2c0.7,1.2,1,1.7,1.1,1.8c0,0.1,0,0.1,0,0.2l-0.3,0.2c-0.1,0-0.1,0-0.2-0.1l-0.4-0.7    c-0.2-0.3-0.4-0.4-0.7-0.3c-0.1,0.1-3.2,1.8-3.4,1.9l-1.1,0.6c-0.1,0.1-3.3,2-3.5,2.1c-0.4,0.2-0.4,0.5-0.1,0.9l0.3,0.6    c0,0.1,0,0.1,0,0.2l-0.4,0.2c-0.1,0-0.1,0-0.2-0.1c-0.1-0.2-0.4-0.7-1.1-2c-0.8-1.3-1.1-1.9-1.2-2c0-0.1,0-0.1,0-0.2l0.4-0.2    c0.1,0,0.1,0,0.1,0.1l0.4,0.8c0.2,0.3,0.4,0.5,0.8,0.4c0.2-0.1,3.2-1.8,4-2.2L52.8,155.3z"
   id="path178" />
	</g>
	<g
   id="g188">
		<path
   d="M66.1,164.1c0-0.1,0.1-0.1,0.2,0c0.1,0.1,0.6,0.4,1.7,1c1.2,0.7,1.8,1,1.9,1.1s0.1,0.1,0.1,0.2l-0.2,0.3    c0,0.1-0.1,0.1-0.2,0.1l-0.7-0.4c-0.4-0.2-0.7-0.2-0.8,0c-0.1,0.1-0.1,0.3-0.2,0.5c-0.2,0.5-0.6,2.5-0.8,3.4    c-0.1,0.6-0.7,3.5-0.9,4.5l0,0c0.7-0.5,3.4-2.7,3.7-3c0.4-0.3,1.8-1.6,2.4-2.1c0.3-0.3,0.5-0.5,0.6-0.7c0.1-0.2,0.1-0.4-0.3-0.6    l-0.4-0.2c-0.1,0,0-0.1,0-0.2l0.2-0.3c0-0.1,0.1-0.1,0.1,0c0.1,0.1,0.7,0.5,1.6,1c1,0.6,1.4,0.7,1.5,0.8c0.1,0,0.1,0.1,0,0.2    l-0.2,0.3c0,0.1-0.1,0.1-0.2,0l-0.4-0.2c-0.5-0.3-0.8-0.2-1.3,0c-0.6,0.2-3.4,2.4-3.9,2.9c-0.4,0.4-4.8,3.7-4.9,3.8    c-0.1,0.1-0.2,0.1-0.3,0.1c-0.1-0.1-0.1-0.2-0.1-0.5c0.3-1.5,1-5.3,1.1-5.9l0.1-0.6c0.2-1.2,0.7-3.6,0.8-4.1c0-0.4,0-0.6-0.3-0.8    l-0.4-0.2c-0.1,0,0-0.1,0-0.1L66.1,164.1z"
   id="path182" />
		<path
   d="M75.1,174.6c0.2-0.3,1.6-2.9,1.7-3.1c0.2-0.3,0.1-0.6-0.4-0.9l-0.8-0.5c-0.1,0-0.1-0.1-0.1-0.1l0.2-0.4    c0-0.1,0.1-0.1,0.1,0c0.2,0.1,0.8,0.5,2.1,1.3c1.2,0.7,1.7,0.9,1.9,1c0.1,0,0.1,0.1,0,0.2l-0.2,0.3c0,0.1-0.1,0.1-0.2,0l-0.7-0.4    c-0.3-0.2-0.5-0.2-0.7,0.1c-0.1,0.1-1.9,3.2-2,3.3l-0.6,1.1c-0.1,0.1-1.9,3.4-2,3.5c-0.2,0.4-0.1,0.6,0.4,0.9l0.6,0.3    c0.1,0,0.1,0.1,0.1,0.2l-0.2,0.4c0,0.1-0.1,0.1-0.2,0c-0.2-0.1-0.7-0.5-1.9-1.2c-1.3-0.8-1.9-1.1-2.1-1.2c-0.1,0-0.1-0.1-0.1-0.1    l0.2-0.4c0-0.1,0.1-0.1,0.2,0l0.8,0.4c0.3,0.2,0.6,0.3,0.9,0c0.1-0.2,1.9-3.2,2.3-3.9L75.1,174.6z"
   id="path184" />
		<path
   d="M80.4,177.6c0.2-0.3,1.6-2.9,1.7-3.1c0.2-0.3,0.1-0.6-0.4-0.9l-0.8-0.5c-0.1,0-0.1-0.1-0.1-0.1l0.2-0.4    c0-0.1,0.1-0.1,0.1,0c0.2,0.1,0.8,0.5,2.1,1.3c1.2,0.7,1.7,0.9,1.9,1c0.1,0,0.1,0.1,0,0.2l-0.2,0.3c0,0.1-0.1,0.1-0.2,0l-0.7-0.4    c-0.3-0.2-0.5-0.2-0.7,0.1c-0.1,0.1-1.9,3.2-2,3.3l-0.6,1.1c-0.1,0.1-1.9,3.4-2,3.5c-0.2,0.4-0.1,0.6,0.4,0.9l0.6,0.3    c0.1,0,0.1,0.1,0.1,0.2l-0.2,0.4c0,0.1-0.1,0.1-0.2,0c-0.2-0.1-0.7-0.5-1.9-1.2c-1.3-0.8-1.9-1.1-2.1-1.2c-0.1,0-0.1-0.1-0.1-0.1    l0.2-0.4c0-0.1,0.1-0.1,0.2,0l0.8,0.4c0.3,0.2,0.6,0.3,0.9,0c0.1-0.2,1.9-3.2,2.3-3.9L80.4,177.6z"
   id="path186" />
	</g>
	<g
   id="g194">
		<path
   d="M107.5,178.9c0-0.1,0-0.1,0.1-0.1c0.2,0,0.7,0,1.9,0c1.3,0,2.1,0,2.2,0c0.1,0,0.2,0,0.2,0.1v0.4c0,0.1,0,0.1-0.1,0.1H111    c-0.4,0-0.7,0.1-0.7,0.4c0,0.1,0,0.3,0.1,0.5c0.1,0.6,0.7,2.5,1,3.4c0.2,0.6,1.1,3.4,1.5,4.3h0c0.3-0.8,1.6-4,1.7-4.4    c0.2-0.4,0.8-2.3,1-3c0.1-0.4,0.2-0.7,0.2-0.9c0-0.2-0.1-0.4-0.5-0.4h-0.4c-0.1,0-0.1,0-0.1-0.1v-0.4c0-0.1,0-0.1,0.1-0.1    c0.1,0,0.9,0,1.9,0c1.2,0,1.6,0,1.7,0c0.1,0,0.1,0,0.1,0.1v0.4c0,0.1,0,0.1-0.1,0.1h-0.4c-0.5,0-0.8,0.3-1.1,0.6    c-0.4,0.5-1.7,3.8-2,4.5c-0.2,0.5-2.3,5.6-2.3,5.8c-0.1,0.1-0.1,0.2-0.2,0.2c-0.1,0-0.2-0.2-0.3-0.4c-0.5-1.5-1.8-5.1-2-5.7    l-0.2-0.5c-0.4-1.1-1.1-3.5-1.3-3.9c-0.2-0.4-0.3-0.5-0.7-0.5h-0.4c-0.1,0-0.1,0-0.1-0.1V178.9z"
   id="path190" />
		<path
   d="M120.6,183.5c0-0.4,0-3.3-0.1-3.5c0-0.4-0.2-0.5-0.8-0.5h-0.9c-0.1,0-0.1,0-0.1-0.1v-0.4c0-0.1,0-0.1,0.1-0.1    c0.2,0,1,0,2.5,0c1.4,0,1.9,0,2.2,0c0.1,0,0.1,0,0.1,0.1v0.4c0,0.1,0,0.1-0.1,0.1h-0.8c-0.3,0-0.6,0.1-0.6,0.4c0,0.2,0,3.7,0,3.9    v1.2c0,0.2,0,3.9,0,4c0,0.5,0.2,0.6,0.8,0.6h0.7c0.1,0,0.1,0,0.1,0.1v0.4c0,0.1,0,0.1-0.1,0.1c-0.2,0-0.8,0-2.2,0    c-1.5,0-2.2,0-2.4,0c-0.1,0-0.1,0-0.1-0.1v-0.4c0-0.1,0-0.1,0.1-0.1h0.9c0.3,0,0.7,0,0.7-0.5c0-0.2,0.1-3.7,0.1-4.5V183.5z"
   id="path192" />
	</g>
	<g
   id="g198">
		<path
   d="M148.3,173.8c0-0.1,0-0.1,0-0.2c0.1-0.1,0.6-0.3,1.7-0.9c1.2-0.7,1.8-1.1,1.9-1.1c0.1-0.1,0.2,0,0.2,0l0.2,0.3    c0,0.1,0.1,0.1,0,0.2l-0.7,0.4c-0.4,0.2-0.5,0.5-0.4,0.7c0.1,0.1,0.2,0.3,0.3,0.4c0.4,0.5,1.8,1.8,2.5,2.4c0.5,0.4,2.7,2.4,3.5,3    l0,0c-0.1-0.8-0.7-4.3-0.7-4.7c-0.1-0.5-0.5-2.4-0.6-3.1c-0.1-0.4-0.1-0.7-0.3-0.9c-0.1-0.2-0.3-0.3-0.6-0.1l-0.4,0.2    c-0.1,0-0.1,0-0.1-0.1l-0.2-0.3c0-0.1,0-0.1,0-0.1c0.1-0.1,0.8-0.4,1.7-0.9c1-0.6,1.3-0.8,1.5-0.9c0.1,0,0.1,0,0.2,0l0.2,0.3    c0,0.1,0,0.1,0,0.2l-0.4,0.2c-0.5,0.3-0.6,0.6-0.7,1.1c-0.1,0.7,0.4,4.1,0.5,4.9c0.1,0.6,0.9,6,0.9,6.2c0,0.1,0,0.3-0.1,0.3    c-0.1,0.1-0.2,0-0.4-0.2c-1.2-1-4.1-3.5-4.6-3.9l-0.4-0.4c-0.9-0.8-2.7-2.4-3.1-2.7c-0.3-0.2-0.5-0.3-0.8-0.1l-0.4,0.2    c-0.1,0-0.1,0-0.1-0.1L148.3,173.8z"
   id="path196" />
	</g>
	<g
   id="g204">
		<path
   d="M180.9,151.7c-0.3-0.2-2.9-1.6-3.1-1.7c-0.3-0.2-0.6-0.1-0.9,0.4l-0.5,0.8c0,0.1-0.1,0.1-0.1,0.1l-0.4-0.2    c-0.1,0-0.1-0.1,0-0.1c0.1-0.2,0.5-0.8,1.3-2.1c0.7-1.2,0.9-1.7,1-1.9c0-0.1,0.1-0.1,0.2,0l0.3,0.2c0.1,0,0.1,0.1,0,0.2l-0.4,0.7    c-0.2,0.3-0.2,0.5,0.1,0.7c0.1,0.1,3.2,1.9,3.3,2l1.1,0.6c0.1,0.1,3.4,1.9,3.5,2c0.4,0.2,0.6,0.1,0.9-0.4l0.3-0.6    c0-0.1,0.1-0.1,0.2-0.1l0.4,0.2c0.1,0,0.1,0.1,0,0.2c-0.1,0.2-0.5,0.7-1.2,1.9c-0.8,1.3-1.1,1.9-1.2,2.1c0,0.1-0.1,0.1-0.1,0.1    l-0.4-0.2c-0.1,0-0.1-0.1,0-0.2l0.4-0.8c0.2-0.3,0.3-0.6,0-0.9c-0.2-0.1-3.2-1.9-3.9-2.3L180.9,151.7z"
   id="path200" />
		<path
   d="M179,145.9c-0.1,0-0.1-0.1,0-0.2c0.1-0.1,0.4-0.6,1-1.7c0.7-1.2,1-1.8,1.1-1.9c0.1-0.1,0.1-0.1,0.2-0.1l0.3,0.2    c0.1,0,0.1,0.1,0.1,0.2l-0.4,0.7c-0.2,0.4-0.2,0.7,0,0.8c0.1,0.1,0.3,0.1,0.5,0.2c0.5,0.2,2.5,0.6,3.4,0.8    c0.6,0.1,3.5,0.7,4.5,0.9l0,0c-0.5-0.7-2.7-3.4-3-3.7c-0.3-0.4-1.6-1.8-2.1-2.4c-0.3-0.3-0.5-0.5-0.7-0.7    c-0.2-0.1-0.4-0.1-0.6,0.3l-0.2,0.4c0,0.1-0.1,0-0.2,0l-0.3-0.2c-0.1,0-0.1-0.1,0-0.1c0.1-0.1,0.5-0.7,1-1.6    c0.6-1,0.7-1.4,0.8-1.5c0-0.1,0.1-0.1,0.2,0l0.3,0.2c0.1,0,0.1,0.1,0,0.2l-0.2,0.4c-0.3,0.5-0.2,0.8,0,1.3    c0.2,0.6,2.4,3.4,2.9,3.9c0.4,0.4,3.7,4.8,3.8,4.9c0.1,0.1,0.1,0.2,0.1,0.3c-0.1,0.1-0.2,0.1-0.5,0.1c-1.5-0.3-5.3-1-5.9-1.1    l-0.6-0.1c-1.2-0.2-3.6-0.7-4.1-0.8c-0.4,0-0.6,0-0.8,0.3l-0.2,0.4c0,0.1-0.1,0-0.1,0L179,145.9z"
   id="path202" />
	</g>
	<g
   id="g212">
		<path
   d="M193.9,100.6c0.4,0,3.3,0,3.5-0.1c0.4,0,0.5-0.2,0.5-0.8v-0.9c0-0.1,0-0.1,0.1-0.1h0.4c0.1,0,0.1,0,0.1,0.1    c0,0.2,0,1,0,2.5c0,1.4,0,1.9,0,2.2c0,0.1,0,0.1-0.1,0.1h-0.4c-0.1,0-0.1,0-0.1-0.1v-0.8c0-0.3-0.1-0.6-0.4-0.6    c-0.2,0-3.7,0-3.9,0h-1.2c-0.2,0-3.9,0-4,0c-0.5,0-0.6,0.2-0.6,0.8v0.7c0,0.1,0,0.1-0.1,0.1h-0.4c-0.1,0-0.1,0-0.1-0.1    c0-0.2,0-0.8,0-2.2c0-1.5,0-2.2,0-2.4c0-0.1,0-0.1,0.1-0.1h0.4c0.1,0,0.1,0,0.1,0.1v0.9c0,0.3,0,0.7,0.5,0.7    c0.2,0,3.7,0.1,4.5,0.1H193.9z"
   id="path206" />
		<path
   d="M193.9,106.7c0.4,0,3.3,0,3.5-0.1c0.4,0,0.5-0.2,0.5-0.8v-0.9c0-0.1,0-0.1,0.1-0.1h0.4c0.1,0,0.1,0,0.1,0.1    c0,0.2,0,1,0,2.5c0,1.4,0,1.9,0,2.2c0,0.1,0,0.1-0.1,0.1h-0.4c-0.1,0-0.1,0-0.1-0.1v-0.8c0-0.3-0.1-0.6-0.4-0.6    c-0.2,0-3.7,0-3.9,0h-1.2c-0.2,0-3.9,0-4,0c-0.5,0-0.6,0.2-0.6,0.8v0.7c0,0.1,0,0.1-0.1,0.1h-0.4c-0.1,0-0.1,0-0.1-0.1    c0-0.2,0-0.8,0-2.2c0-1.5,0-2.2,0-2.4c0-0.1,0-0.1,0.1-0.1h0.4c0.1,0,0.1,0,0.1,0.1v0.9c0,0.3,0,0.7,0.5,0.7    c0.2,0,3.7,0.1,4.5,0.1H193.9z"
   id="path208" />
		<path
   d="M193.9,112.8c0.4,0,3.3,0,3.5-0.1c0.4,0,0.5-0.2,0.5-0.8V111c0-0.1,0-0.1,0.1-0.1h0.4c0.1,0,0.1,0,0.1,0.1    c0,0.2,0,1,0,2.5c0,1.4,0,1.9,0,2.2c0,0.1,0,0.1-0.1,0.1h-0.4c-0.1,0-0.1,0-0.1-0.1v-0.8c0-0.3-0.1-0.6-0.4-0.6    c-0.2,0-3.7,0-3.9,0h-1.2c-0.2,0-3.9,0-4,0c-0.5,0-0.6,0.2-0.6,0.8v0.7c0,0.1,0,0.1-0.1,0.1h-0.4c-0.1,0-0.1,0-0.1-0.1    c0-0.2,0-0.8,0-2.2c0-1.5,0-2.2,0-2.4c0-0.1,0-0.1,0.1-0.1h0.4c0.1,0,0.1,0,0.1,0.1v0.9c0,0.3,0,0.7,0.5,0.7    c0.2,0,3.7,0.1,4.5,0.1H193.9z"
   id="path210" />
	</g>
	<g
   id="g218">
		<path
   d="M181.5,64.9c0.3-0.2,2.8-1.7,3-1.8c0.3-0.2,0.4-0.4,0.1-1l-0.5-0.8c0-0.1,0-0.1,0-0.2l0.4-0.2c0.1,0,0.1,0,0.1,0    c0.1,0.2,0.5,0.9,1.2,2.2c0.7,1.2,1,1.7,1.1,1.8c0,0.1,0,0.1,0,0.2l-0.3,0.2c-0.1,0-0.1,0-0.2-0.1l-0.4-0.7    c-0.2-0.3-0.4-0.4-0.7-0.3c-0.1,0.1-3.2,1.8-3.4,1.9l-1.1,0.6c-0.1,0.1-3.3,2-3.5,2.1c-0.4,0.2-0.4,0.5-0.1,0.9l0.3,0.6    c0,0.1,0,0.1,0,0.2l-0.4,0.2c-0.1,0-0.1,0-0.2-0.1c-0.1-0.2-0.4-0.7-1.1-2c-0.8-1.3-1.1-1.9-1.2-2c0-0.1,0-0.1,0-0.2l0.4-0.2    c0.1,0,0.1,0,0.1,0.1l0.4,0.8c0.2,0.3,0.4,0.5,0.8,0.4c0.2-0.1,3.2-1.8,4-2.2L181.5,64.9z"
   id="path214" />
		<path
   d="M184.6,70.2c0.3-0.2,2.8-1.7,3-1.8c0.3-0.2,0.4-0.4,0.1-1l-0.5-0.8c0-0.1,0-0.1,0-0.2l0.4-0.2c0.1,0,0.1,0,0.1,0    c0.1,0.2,0.5,0.9,1.2,2.2c0.7,1.2,1,1.7,1.1,1.8c0,0.1,0,0.1,0,0.2l-0.3,0.2c-0.1,0-0.1,0-0.2-0.1l-0.4-0.7    c-0.2-0.3-0.4-0.4-0.7-0.3c-0.1,0.1-3.2,1.8-3.4,1.9l-1.1,0.6c-0.1,0.1-3.3,2-3.5,2.1c-0.4,0.2-0.4,0.5-0.1,0.9l0.3,0.6    c0,0.1,0,0.1,0,0.2l-0.4,0.2c-0.1,0-0.1,0-0.2-0.1c-0.1-0.2-0.4-0.7-1.1-2c-0.8-1.3-1.1-1.9-1.2-2c0-0.1,0-0.1,0-0.2l0.4-0.2    c0.1,0,0.1,0,0.1,0.1l0.4,0.8c0.2,0.3,0.4,0.5,0.8,0.4c0.2-0.1,3.2-1.8,4-2.2L184.6,70.2z"
   id="path216" />
	</g>
	<g
   id="g222">
		<path
   d="M154.1,39.1c0.2-0.3,1.6-2.9,1.7-3.1c0.2-0.3,0.1-0.6-0.4-0.9l-0.8-0.5c-0.1,0-0.1-0.1-0.1-0.1l0.2-0.4    c0-0.1,0.1-0.1,0.1,0c0.2,0.1,0.8,0.5,2.1,1.3c1.2,0.7,1.7,0.9,1.9,1c0.1,0,0.1,0.1,0,0.2l-0.2,0.3c0,0.1-0.1,0.1-0.2,0l-0.7-0.4    c-0.3-0.2-0.5-0.2-0.7,0.1c-0.1,0.1-1.9,3.2-2,3.3l-0.6,1.1c-0.1,0.1-1.9,3.4-2,3.5c-0.2,0.4-0.1,0.6,0.4,0.9l0.6,0.3    c0.1,0,0.1,0.1,0.1,0.2l-0.2,0.4c0,0.1-0.1,0.1-0.2,0c-0.2-0.1-0.7-0.5-1.9-1.2c-1.3-0.8-1.9-1.1-2.1-1.2c-0.1,0-0.1-0.1-0.1-0.1    l0.2-0.4c0-0.1,0.1-0.1,0.2,0l0.8,0.4c0.3,0.2,0.6,0.3,0.9,0c0.1-0.2,1.9-3.2,2.3-3.9L154.1,39.1z"
   id="path220" />
	</g>
	<path
   class="st3"
   d="M115.5,111.4c-2.2,0-4-1.8-4-4c0-2.2,1.8-4,4-4s4,1.8,4,4C119.5,109.6,117.7,111.4,115.5,111.4z M115.5,109.4   c1.1,0,2-0.9,2-2s-0.9-2-2-2s-2,0.9-2,2S114.4,109.4,115.5,109.4z"
   id="path224" />
	<path
   class="st3"
   d="M145.7,92.2c0.1-0.1,0.2-0.2,0.2-0.4c0,0,0.1-0.1,0.1-0.1c0.2,0,0.4,0,0.4-0.2c0.1-0.2,0.1-0.3,0-0.5   c0,0,0-0.1,0-0.1c0.2,0,0.3-0.2,0.3-0.4c0-0.2-0.1-0.3-0.3-0.4c0,0,0,0,0,0c1.7,0.3,4.5,0.8,7.5-5c-6.5-0.3-7.5,2.1-8,3.7   c0,0-0.1-0.1-0.1-0.1c-0.2-0.1-0.5,0-0.6,0.2c0,0,0,0,0,0c0,0,0,0,0,0c0,0,0,0,0-0.1c0-0.2-0.2-0.4-0.4-0.4c-0.2,0-0.4,0.2-0.4,0.4   c0,0,0,0,0,0c0,0,0,0,0,0c0,0,0-0.1,0-0.1c-0.1-0.2-0.4-0.3-0.6-0.2c-0.2,0.1-0.3,0.4-0.2,0.6c0,0,0,0,0,0c0,0,0,0,0,0   c0,0,0,0-0.1-0.1c-0.2-0.1-0.5,0-0.6,0.2c-0.1,0.2,0,0.5,0.2,0.6c0,0,0,0,0,0c0,0,0,0,0,0c0,0,0,0-0.1,0c-0.2,0-0.4,0.2-0.4,0.4   c0,0.2,0.2,0.4,0.4,0.4c0,0,0,0,0,0c0,0,0,0,0,0c-0.1,0.1-0.2,0.2-0.2,0.3c-11.2,3.4-21.3,10.7-25.1,14.8c-0.4,0.2-0.7,0.4-0.7,0.4   c0.1,0,0.3-0.1,0.4-0.1c-0.1,0.1-0.2,0.2-0.3,0.3c0,0,0.2-0.1,0.7-0.4c5.6-1.3,17-6.4,25.6-14.5c0,0,0,0,0,0   c-0.1,0.2,0,0.4,0.2,0.5c0.2,0.1,0.3,0.1,0.5,0c0,0,0.1,0,0.1,0c0,0.2,0.2,0.3,0.4,0.3c0.2,0,0.3-0.1,0.4-0.2c0,0,0.1,0,0.1,0   C145.4,92.3,145.6,92.3,145.7,92.2z"
   id="path226" />
	<path
   class="st3"
   d="M83.2,71.8c-0.2-0.2-0.4-0.2-0.6-0.2c-0.1,0-0.1-0.1-0.2-0.1c0-0.2-0.2-0.5-0.4-0.5c-0.2-0.1-0.5,0-0.6,0.2   c-0.1,0-0.1,0-0.2,0c-0.1-0.2-0.4-0.4-0.6-0.3c-0.2,0-0.4,0.3-0.4,0.5c0,0,0,0,0,0c-0.4-2.3-1.1-6.2-9.7-8.8   c2.6,8.6,6.1,9.4,8.4,9.7c0,0-0.1,0.1-0.1,0.2c-0.1,0.3,0.2,0.6,0.5,0.7c0,0,0,0,0,0c0,0,0,0,0,0c0,0,0,0-0.1,0   c-0.3,0.1-0.4,0.3-0.3,0.6c0.1,0.3,0.4,0.5,0.7,0.5c0,0,0,0,0,0c0,0,0,0,0,0c0,0-0.1,0-0.1,0.1c-0.2,0.2-0.2,0.5,0.1,0.8   c0.2,0.2,0.6,0.3,0.8,0.1c0,0,0,0,0,0c0,0,0,0,0,0c0,0,0,0.1,0,0.1c-0.1,0.3,0.2,0.6,0.5,0.7c0.3,0.1,0.6,0,0.6-0.3c0,0,0,0,0,0   c0,0,0,0,0,0c0,0,0,0.1,0,0.1c0.1,0.3,0.4,0.5,0.7,0.5c0.3,0,0.4-0.3,0.3-0.6c0,0,0,0,0,0c0,0,0,0,0,0c0.1,0.1,0.3,0.2,0.5,0.2   c9.4,14,23.3,25.7,30.3,29.8c0.5,0.5,0.8,0.8,0.8,0.8c-0.1-0.2-0.2-0.3-0.3-0.5c0.2,0.1,0.3,0.2,0.5,0.3c0,0-0.3-0.3-0.8-0.8   c-4.2-7-16-21-30.1-30.5c0,0,0,0,0,0c0.3,0.1,0.5-0.1,0.6-0.3c0-0.2-0.1-0.5-0.3-0.6c0,0,0-0.1,0-0.1c0.2-0.1,0.3-0.3,0.2-0.6   c-0.1-0.2-0.3-0.4-0.5-0.4c0-0.1-0.1-0.1-0.1-0.2C83.5,72.2,83.4,72,83.2,71.8z"
   id="path228" />
<g
   id="g1051"
   transform="translate(3,-4.6666663)">
		<path
   id="path1045"
   d="m 49.3,78.4 c 0.1,0 0.1,0.1 0.1,0.2 -0.1,0.1 -0.4,0.7 -1.1,1.8 -0.5,0.8 -0.8,1.4 -0.8,1.5 0,0.1 -0.1,0.1 -0.2,0 L 47,81.7 c -0.1,0 -0.1,-0.1 0,-0.1 l 0.3,-0.5 c 0.1,-0.2 0.1,-0.6 0.1,-1 -0.3,-1.3 -1.8,-4.3 -2.2,-5.5 -1,0.1 -5.3,0.4 -5.8,0.5 -0.2,0.1 -0.4,0.2 -0.6,0.5 l -0.4,0.6 c 0,0.1 -0.1,0 -0.2,0 L 37.9,76 c -0.1,0 -0.1,-0.1 -0.1,-0.1 0.1,-0.1 0.5,-0.8 1.2,-1.9 0.8,-1.4 1.1,-2 1.2,-2.1 0.1,-0.1 0.1,-0.1 0.2,-0.1 l 0.3,0.2 c 0.1,0 0.1,0.1 0.1,0.2 l -0.3,0.5 c -0.4,0.6 0,0.8 0.4,0.8 0.3,0 3.2,0 3.8,-0.1 -0.3,-0.7 -1.5,-3.5 -1.7,-3.8 -0.2,-0.3 -0.5,-0.4 -0.7,0 L 42,69.7 c 0,0.1 -0.1,0.1 -0.2,0 l -0.3,-0.2 c -0.1,0 -0.1,-0.1 0,-0.2 0.1,-0.2 0.5,-0.7 0.9,-1.5 0.4,-0.8 0.7,-1.3 0.8,-1.4 0.1,-0.1 0.1,-0.1 0.2,-0.1 l 0.3,0.2 c 0.1,0.1 0.1,0.1 0.1,0.2 l -0.3,0.6 c -0.2,0.3 -0.2,0.5 -0.2,0.7 0,0.4 1.6,4.2 2,5.1 0.4,0 6.1,-0.3 6.3,-0.4 0.5,-0.2 0.8,-0.4 0.9,-0.7 l 0.3,-0.5 c 0.1,-0.1 0.1,-0.1 0.2,-0.1 l 0.3,0.2 c 0.1,0 0.1,0.1 0,0.2 -0.1,0.1 -0.4,0.6 -1.1,1.7 -0.6,1.1 -1,1.9 -1.1,2 -0.1,0.1 -0.1,0.1 -0.2,0.1 l -0.3,-0.2 c -0.1,0 -0.1,-0.1 0,-0.1 l 0.3,-0.5 c 0.2,-0.3 0.2,-0.5 -0.1,-0.5 -0.3,0 -4.5,0.1 -5,0.1 0.5,1 1.9,4 2.1,4.2 0.3,0.4 0.6,0.4 0.8,0.1 L 49,78.2 c 0.1,-0.1 0.1,-0.1 0.1,-0.1 z"
   inkscape:connector-curvature="0" />
		
		
	</g><g
   id="g1059"
   transform="translate(0.99999967,-0.99999967)">
		<path
   id="path1053"
   d="m 72.7,49.2 c 0,0.1 0.1,0.1 0,0.2 -0.1,0.1 -0.7,0.4 -1.8,1 -0.8,0.5 -1.3,0.8 -1.5,0.9 -0.1,0 -0.1,0 -0.2,-0.1 L 69,50.9 c 0,-0.1 0,-0.1 0,-0.1 l 0.5,-0.3 c 0.2,-0.1 0.4,-0.5 0.6,-0.9 0.4,-1.2 0.6,-4.6 0.8,-5.9 -0.9,-0.4 -4.8,-2.4 -5.3,-2.5 -0.2,-0.1 -0.5,0 -0.7,0.2 l -0.6,0.4 c -0.1,0 -0.1,0 -0.1,-0.1 L 64,41.3 c 0,-0.1 0,-0.1 0,-0.2 0.1,-0.1 0.8,-0.4 2,-1.1 1.4,-0.8 1.9,-1.2 2.1,-1.3 0.1,-0.1 0.1,0 0.2,0 l 0.2,0.3 c 0,0.1 0.1,0.1 -0.1,0.2 l -0.5,0.3 c -0.6,0.4 -0.4,0.7 0,0.9 0.2,0.1 2.8,1.5 3.4,1.8 0.1,-0.7 0.4,-3.8 0.4,-4.1 0,-0.4 -0.2,-0.6 -0.6,-0.4 L 70.7,38 c -0.1,0 -0.1,0 -0.2,-0.1 l -0.2,-0.3 c 0,-0.1 0,-0.1 0,-0.2 0.2,-0.1 0.7,-0.4 1.5,-0.8 0.8,-0.4 1.2,-0.8 1.4,-0.8 0.1,-0.1 0.1,0 0.2,0 l 0.2,0.3 c 0.1,0.1 0.1,0.1 0,0.2 L 73,36.6 c -0.3,0.2 -0.4,0.4 -0.5,0.5 -0.2,0.3 -0.7,4.4 -0.8,5.4 0.3,0.2 5.4,2.8 5.6,2.8 0.5,0.1 0.9,0 1.1,-0.2 L 79,45 c 0.1,-0.1 0.1,0 0.2,0 l 0.2,0.3 c 0,0.1 0.1,0.1 0,0.2 -0.1,0.1 -0.6,0.3 -1.8,1 -1.1,0.6 -1.8,1.1 -1.9,1.2 -0.1,0.1 -0.1,0 -0.2,0 l -0.2,-0.3 c 0,-0.1 0,-0.1 0,-0.1 L 75.8,47 c 0.3,-0.2 0.4,-0.3 0.2,-0.5 -0.2,-0.2 -3.9,-2.2 -4.4,-2.4 -0.1,1.1 -0.4,4.4 -0.3,4.7 0.1,0.5 0.3,0.7 0.6,0.5 L 72.4,49 c 0.1,-0.1 0.1,0 0.2,0 z"
   inkscape:connector-curvature="0" />
		<path
   id="path1055"
   d="M 77.8,38.6 C 77.6,38.3 76.1,35.8 76,35.6 75.8,35.3 75.6,35.2 75,35.5 L 74.2,36 c -0.1,0 -0.1,0 -0.2,0 l -0.2,-0.4 c 0,-0.1 0,-0.1 0,-0.1 0.2,-0.1 0.9,-0.5 2.2,-1.2 1.2,-0.7 1.7,-1 1.8,-1.1 0.1,0 0.1,0 0.2,0 l 0.2,0.3 c 0,0.1 0,0.1 -0.1,0.2 L 77.6,34 c -0.3,0.2 -0.4,0.4 -0.3,0.7 0.1,0.1 1.8,3.2 1.9,3.4 l 0.6,1.1 c 0.1,0.1 2,3.3 2.1,3.5 0.2,0.4 0.5,0.4 0.9,0.1 l 0.6,-0.3 c 0.1,0 0.1,0 0.2,0 l 0.2,0.4 c 0,0.1 0,0.1 -0.1,0.2 -0.2,0.1 -0.7,0.4 -2,1.1 -1.3,0.8 -1.9,1.1 -2,1.2 -0.1,0 -0.1,0 -0.2,0 L 79.3,45 c 0,-0.1 0,-0.1 0.1,-0.1 l 0.8,-0.4 c 0.3,-0.2 0.5,-0.4 0.4,-0.8 -0.1,-0.2 -1.8,-3.2 -2.2,-4 z"
   inkscape:connector-curvature="0" />
		
	</g></g>
<g
   id="Layer_2">
</g>
<metadata
   id="metadata232"><rdf:RDF><cc:Work><dc:format>image/svg+xml</dc:format><dc:type
         rdf:resource="http://purl.org/dc/dcmitype/StillImage" /><cc:license
         rdf:resource="http://creativecommons.org/licenses/publicdomain/" /><dc:publisher><cc:Agent
           rdf:about="http://openclipart.org/"><dc:title>Openclipart</dc:title></cc:Agent></dc:publisher><dc:title></dc:title></cc:Work><cc:License
       rdf:about="http://creativecommons.org/licenses/publicdomain/"><cc:permits
         rdf:resource="http://creativecommons.org/ns#Reproduction" /><cc:permits
         rdf:resource="http://creativecommons.org/ns#Distribution" /><cc:permits
         rdf:resource="http://creativecommons.org/ns#DerivativeWorks" /></cc:License></rdf:RDF></metadata></svg>