<?xml version="1.0" encoding="UTF-8" standalone="no"?>
<!-- Created with Inkscape (http://www.inkscape.org/) -->

<svg
   version="1.1"
   id="svg41341"
   xml:space="preserve"
   width="1066.6667"
   height="1066.6667"
   viewBox="0 0 1066.6667 1066.6667"
   sodipodi:docname="sweet-donuts-pdv.svg"
   inkscape:version="1.1.2 (b8e25be833, 2022-02-05)"
   xmlns:inkscape="http://www.inkscape.org/namespaces/inkscape"
   xmlns:sodipodi="http://sodipodi.sourceforge.net/DTD/sodipodi-0.dtd"
   xmlns="http://www.w3.org/2000/svg"
   xmlns:svg="http://www.w3.org/2000/svg"><defs
     id="defs41345"><clipPath
       clipPathUnits="userSpaceOnUse"
       id="clipPath41355"><path
         d="M 0,800 H 800 V 0 H 0 Z"
         id="path41353" /></clipPath></defs><sodipodi:namedview
     id="namedview41343"
     pagecolor="#ffffff"
     bordercolor="#666666"
     borderopacity="1.0"
     inkscape:pageshadow="2"
     inkscape:pageopacity="0.0"
     inkscape:pagecheckerboard="0"
     showgrid="false"
     inkscape:zoom="0.77906244"
     inkscape:cx="533.33337"
     inkscape:cy="533.33337"
     inkscape:window-width="1920"
     inkscape:window-height="1018"
     inkscape:window-x="-8"
     inkscape:window-y="-8"
     inkscape:window-maximized="1"
     inkscape:current-layer="g41347" /><g
     id="g41347"
     inkscape:groupmode="layer"
     inkscape:label="sweet-donuts-pdv"
     transform="matrix(1.3333333,0,0,-1.3333333,0,1066.6667)"><g
       id="g41349"><g
         id="g41351"
         clip-path="url(#clipPath41355)"><path
           d="m 300.267,429.128 c -59.654,0 -108.011,-32.009 -108.011,-71.495 0,-39.485 48.357,-71.494 108.011,-71.494 59.656,0 108.012,32.009 108.012,71.494 0,39.486 -48.356,71.495 -108.012,71.495 m 0,86.732 c 122.018,0 220.935,-77.662 220.935,-173.464 0,-95.8 -98.917,-173.464 -220.935,-173.464 -122.017,0 -220.934,77.664 -220.934,173.464 0.001,95.802 98.917,173.464 220.934,173.464"
           style="fill:#e6e6e6;fill-opacity:1;fill-rule:evenodd;stroke:none"
           id="path41357" /><path
           d="m 527.839,481.213 c -58.933,11.4 -111.669,-10.801 -117.795,-49.587 -6.123,-38.784 36.682,-79.466 95.615,-90.866 58.931,-11.399 111.667,10.801 117.793,49.586 6.125,38.786 -36.682,79.467 -95.613,90.867 m 13.453,85.192 C 661.833,543.089 747.502,447.902 732.646,353.803 717.784,259.701 608.021,202.32 487.478,225.637 366.938,248.955 281.265,344.141 296.126,438.24 c 14.86,94.1 124.624,151.482 245.166,128.165"
           style="fill:#e6e6e6;fill-opacity:1;fill-rule:evenodd;stroke:none"
           id="path41359" /><path
           d="m 287.169,446.629 c -59.653,0 -108.01,-32.009 -108.01,-71.496 0,-39.487 48.356,-71.496 108.01,-71.496 59.656,0 108.013,32.009 108.013,71.496 0,39.487 -48.357,71.496 -108.013,71.496 m 0,86.731 c 122.019,0 220.934,-77.661 220.934,-173.464 0,-95.8 -98.915,-173.462 -220.934,-173.462 -122.016,0 -220.933,77.662 -220.933,173.462 0,95.803 98.917,173.464 220.933,173.464"
           style="fill:#fcb874;fill-opacity:1;fill-rule:evenodd;stroke:none"
           id="path41361" /><path
           d="m 287.169,446.629 c -59.653,0 -108.01,-32.009 -108.01,-71.496 0,-39.487 48.356,-71.496 108.01,-71.496 59.656,0 108.013,32.009 108.013,71.496 0,39.487 -48.357,71.496 -108.013,71.496 m 0,86.731 c 51.057,0 98.057,-13.603 135.47,-36.436 1.468,-2.713 3.965,-5.082 8.416,-7.037 15.306,-6.724 -7.03,-33.382 13.529,-45.148 88.281,-50.53 -3.045,-46.583 14.834,-61.464 28.635,-23.839 32.748,-45.929 -1.326,-46.107 -26.823,-0.145 -26.539,-6.625 -12.812,-21.006 29.029,-30.41 -15.978,-28.967 -31.255,-21.457 -23.235,11.422 -17.143,-5.566 -17.143,-31.019 -0.001,-21.905 -28.039,10.486 -49.777,1.785 -24.259,-9.709 12.578,-19.543 11.183,-31.16 -2.803,-23.358 -40.617,11.574 -46.151,14.181 -16.747,7.895 -18.251,-5.035 -23.203,-19.996 -5.493,-16.592 -24.174,-2.853 -24.334,6.154 -1.287,72.961 -31.287,-37.504 -43.788,15.461 -12.432,52.688 -23.604,-23.314 -37.374,14.086 -15.357,41.713 -29.712,14.971 -44.939,17.746 -4.849,0.885 -5.207,35.616 -16.123,31.727 -12.983,-4.625 -16.721,-10.941 -25.975,-1.221 -8.052,8.459 14.806,26.295 2.843,28.274 -38.901,6.437 0.412,22.918 -4.672,30.908 -6.734,10.582 -18.584,12.414 -10.982,23.48 10.56,15.375 18.876,18.805 22.832,22.224 8.88,7.679 -1.236,18.728 1.711,26.689 5.708,15.411 21.305,13.63 17.955,19.278 -3.371,5.691 -3.649,9.59 -2.468,13.218 40.415,34.918 98.722,56.84 163.549,56.84"
           style="fill:#cc3300;fill-opacity:1;fill-rule:evenodd;stroke:none"
           id="path41363" /><path
           d="m 158.501,336.732 c -7.331,9.92 -12.728,21.305 -15.475,34.227 -1.166,5.48 -1.753,11.068 -1.753,16.674 0,5.601 0.587,11.189 1.753,16.67 13.021,61.277 85.674,87.989 141.474,87.989 55.799,0 128.451,-26.712 141.473,-87.989 1.166,-5.481 1.755,-11.069 1.755,-16.67 0,-3.272 -0.203,-6.535 -0.599,-9.776 -0.248,-2.003 0.524,-3.845 2.127,-5.076 1.6,-1.23 3.581,-1.502 5.454,-0.746 1.011,0.406 2.043,0.779 3.092,1.121 1.717,0.563 2.955,1.787 3.535,3.5 0.578,1.713 0.336,3.438 -0.691,4.924 -4.576,6.637 -6.776,14.596 -5.574,23.074 0.706,4.988 2.194,9.057 4.266,12.474 4.088,6.74 1.978,15.553 -4.718,19.711 -10.261,6.37 -17.623,15.783 -20.898,27.553 -1.73,6.223 -2.144,12.456 -1.803,18.801 0.218,4.025 -1.059,7.57 -3.788,10.536 -0.122,0.132 -0.242,0.266 -0.362,0.398 -37.141,21.391 -80.587,31.473 -123.269,31.473 -46.582,0 -95.019,-12.205 -134.209,-38.192 -3.793,-2.515 -6.012,-6.26 -6.395,-10.794 -0.16,-1.887 -0.494,-3.776 -1.009,-5.637 -1.921,-6.95 -5.76,-12.234 -10.912,-16.339 -3.718,-2.963 -5.622,-7.137 -5.417,-11.887 0.524,-12.235 -3.362,-23.487 -13.9,-32.597 -0.034,-0.029 -0.068,-0.062 -0.101,-0.088 -4.71,-4.058 -6.276,-10.342 -4.025,-16.13 0.683,-1.764 1.213,-3.588 1.58,-5.454 0.789,-4.017 0.829,-7.724 0.287,-11.201 -0.602,-3.871 0.239,-7.412 2.517,-10.597 1.042,-1.457 1.972,-3.022 2.777,-4.688 0.638,-1.316 1.172,-2.615 1.612,-3.891 1.387,-4.033 4.14,-6.966 8.073,-8.609 9.876,-4.121 15.883,-11.986 19.859,-21.176 1.131,-2.617 3.657,-4.17 6.505,-4.002 0.282,0.018 0.565,0.034 0.845,0.043 2.942,0.125 5.404,1.752 6.675,4.409 1.27,2.658 0.99,5.593 -0.761,7.962"
           style="fill:#e8592a;fill-opacity:1;fill-rule:evenodd;stroke:none"
           id="path41365" /><path
           d="m 287.169,446.629 c 54.81,0 100.079,-27.023 107.07,-62.039 0.939,3.787 1.433,7.676 1.433,11.64 0,39.486 -48.357,71.496 -108.011,71.496 -59.653,0 -108.012,-32.01 -108.012,-71.496 0,-3.205 0.324,-6.363 0.942,-9.457 8.4,33.949 52.914,59.856 106.578,59.856 m 220.726,-79.463 c 0.127,-2.41 0.208,-4.834 0.208,-7.27 0,-95.8 -98.915,-173.462 -220.934,-173.462 -122.016,0 -220.933,77.662 -220.933,173.462 0,4.655 0.24,9.266 0.7,13.827 4.855,-92.426 101.809,-166.194 220.725,-166.194 116.09,0 211.26,70.303 220.234,159.637"
           style="fill:#eb9e50;fill-opacity:1;fill-rule:evenodd;stroke:none"
           id="path41367" /><path
           d="m 199.256,496.402 30.089,8.019 c 1.476,0.388 2.356,1.9 1.968,3.375 -0.387,1.475 -1.899,2.356 -3.374,1.967 l -30.089,-8.02 c -1.475,-0.387 -2.356,-1.898 -1.969,-3.372 0.387,-1.477 1.9,-2.356 3.375,-1.969 m -37.228,-23.239 15.16,-9.265 c 1.303,-0.796 3.002,-0.384 3.796,0.917 0.796,1.301 0.384,3.003 -0.918,3.796 l -15.161,9.267 c -1.301,0.794 -3.003,0.382 -3.797,-0.919 -0.793,-1.301 -0.381,-3.002 0.92,-3.796 m 32.712,-23.237 c 1.015,1.135 2.759,1.231 3.892,0.215 1.135,-1.015 1.23,-2.758 0.217,-3.891 l -15.236,-16.996 c -1.015,-1.134 -2.76,-1.23 -3.894,-0.214 -1.133,1.012 -1.23,2.757 -0.215,3.891 z m 67.935,45.085 c -1.273,0.834 -1.625,2.545 -0.789,3.817 0.833,1.271 2.544,1.626 3.816,0.79 l 22.269,-14.651 c 1.272,-0.835 1.625,-2.547 0.789,-3.817 -0.835,-1.273 -2.544,-1.625 -3.817,-0.789 z m -20.578,1.681 c 0.95,1.194 2.69,1.392 3.884,0.442 1.193,-0.948 1.391,-2.689 0.443,-3.882 l -12.6,-15.824 c -0.948,-1.194 -2.688,-1.392 -3.882,-0.442 -1.194,0.95 -1.393,2.687 -0.444,3.882 z M 138.968,439.646 c 0.191,1.511 1.573,2.579 3.083,2.39 1.511,-0.191 2.581,-1.574 2.39,-3.084 l -2.05,-15.823 c -0.191,-1.51 -1.572,-2.581 -3.083,-2.39 -1.511,0.191 -2.581,1.572 -2.39,3.083 z m -7.214,-31.517 c -1.515,0.155 -2.619,1.513 -2.465,3.028 0.154,1.516 1.511,2.621 3.027,2.465 l 19.34,-2.051 c 1.515,-0.154 2.619,-1.511 2.465,-3.028 -0.155,-1.514 -1.513,-2.619 -3.028,-2.464 z m 29.873,-14.754 c 1.015,1.135 2.761,1.23 3.894,0.217 1.133,-1.016 1.23,-2.76 0.215,-3.895 l -14.65,-16.406 c -1.015,-1.135 -2.759,-1.23 -3.892,-0.217 -1.135,1.016 -1.23,2.76 -0.217,3.893 z m -8.607,-43.82 c 1.397,-0.614 2.032,-2.246 1.418,-3.645 -0.615,-1.396 -2.25,-2.029 -3.646,-1.416 l -19.87,8.764 c -1.397,0.615 -2.03,2.25 -1.416,3.646 0.615,1.397 2.248,2.032 3.646,1.414 z m 22.653,-11.198 c 0.405,1.469 1.927,2.332 3.396,1.926 1.467,-0.404 2.329,-1.928 1.925,-3.396 l -4.689,-16.994 c -0.405,-1.471 -1.927,-2.33 -3.396,-1.924 -1.469,0.404 -2.329,1.927 -1.925,3.394 z m 20.351,-26.724 c 1.505,0.262 2.938,-0.746 3.201,-2.248 0.263,-1.506 -0.744,-2.94 -2.249,-3.203 l -33.403,-5.862 c -1.505,-0.261 -2.94,0.744 -3.203,2.25 -0.261,1.506 0.746,2.94 2.249,3.201 z m 20.656,-7.951 c 0.998,1.152 2.741,1.277 3.893,0.281 1.155,-0.998 1.281,-2.742 0.283,-3.893 l -11.721,-13.48 c -0.995,-1.152 -2.741,-1.277 -3.893,-0.279 -1.153,0.994 -1.278,2.738 -0.281,3.892 z m 52.239,-17.227 c 1.515,0.137 2.857,-0.982 2.995,-2.498 0.137,-1.516 -0.98,-2.859 -2.497,-2.996 l -31.646,-2.928 c -1.517,-0.138 -2.858,0.981 -2.995,2.496 -0.137,1.518 0.98,2.858 2.497,2.996 z m 42.826,2.147 4.66,-11.77 c 0.562,-1.42 2.169,-2.119 3.591,-1.559 1.421,0.561 2.117,2.17 1.557,3.59 l -4.661,11.772 c -0.559,1.42 -2.169,2.117 -3.59,1.556 -1.421,-0.558 -2.117,-2.17 -1.557,-3.589 m -23.149,-18.745 c -1.499,0.276 -2.492,1.713 -2.218,3.213 0.274,1.498 1.713,2.491 3.212,2.217 l 25.198,-4.687 c 1.499,-0.274 2.491,-1.713 2.219,-3.211 -0.276,-1.498 -1.713,-2.493 -3.213,-2.217 z m 83.8,34.62 c 0.31,1.494 1.773,2.451 3.267,2.14 1.491,-0.31 2.449,-1.773 2.14,-3.265 l -5.135,-24.309 c -0.312,-1.494 -1.772,-2.451 -3.267,-2.141 -1.493,0.311 -2.451,1.774 -2.139,3.266 z m -12.401,4.802 c 1.177,0.973 2.921,0.809 3.896,-0.367 0.972,-1.176 0.806,-2.92 -0.369,-3.894 l -16.611,-13.752 c -1.176,-0.975 -2.919,-0.809 -3.893,0.367 -0.974,1.176 -0.81,2.92 0.368,3.892 z m 59.389,36.19 c -0.196,1.511 0.87,2.898 2.381,3.095 1.51,0.196 2.895,-0.871 3.091,-2.38 l 3.517,-26.37 c 0.196,-1.511 -0.868,-2.898 -2.379,-3.095 -1.511,-0.196 -2.898,0.871 -3.095,2.381 z m -29.679,-19.395 c -1.522,0.102 -2.675,1.418 -2.573,2.942 0.1,1.523 1.417,2.675 2.941,2.574 l 15.877,-1.098 c 1.523,-0.101 2.675,-1.42 2.573,-2.941 -0.098,-1.524 -1.417,-2.674 -2.939,-2.574 z m 63.439,69.906 c 1.158,0.993 2.901,0.854 3.893,-0.304 0.99,-1.156 0.855,-2.903 -0.304,-3.893 l -14.292,-12.301 c -1.158,-0.99 -2.903,-0.853 -3.893,0.303 -0.992,1.16 -0.855,2.904 0.304,3.897 z m -41.286,-24.359 c -1.288,0.811 -1.674,2.516 -0.864,3.807 0.813,1.289 2.518,1.676 3.806,0.863 l 17.581,-11.133 c 1.289,-0.812 1.677,-2.517 0.866,-3.808 -0.813,-1.289 -2.518,-1.676 -3.808,-0.864 z m -4.297,39.059 c -1.405,0.595 -2.057,2.219 -1.46,3.622 0.597,1.403 2.22,2.057 3.623,1.46 l 12.306,-5.274 c 1.404,-0.598 2.056,-2.221 1.459,-3.625 -0.597,-1.403 -2.22,-2.057 -3.623,-1.459 z m -6.811,53.803 c 0.477,1.446 2.037,2.23 3.481,1.753 1.447,-0.479 2.231,-2.037 1.753,-3.483 l -5.274,-15.822 c -0.477,-1.446 -2.035,-2.23 -3.481,-1.753 -1.447,0.477 -2.23,2.037 -1.751,3.484 z m -53.736,25.179 c -1.475,0.376 -2.366,1.878 -1.99,3.352 0.374,1.477 1.877,2.367 3.352,1.991 l 22.855,-5.86 c 1.475,-0.376 2.366,-1.877 1.99,-3.352 -0.376,-1.474 -1.877,-2.365 -3.352,-1.989 z m -39.41,15.775 c -0.531,1.426 0.197,3.015 1.624,3.546 1.426,0.532 3.015,-0.195 3.545,-1.622 l 9.376,-25.199 c 0.531,-1.428 -0.194,-3.017 -1.621,-3.547 -1.428,-0.531 -3.018,0.194 -3.549,1.622 z m -47.989,-0.604 c -1.511,-0.225 -2.921,0.817 -3.147,2.328 -0.226,1.511 0.814,2.921 2.325,3.148 l 22.855,3.515 c 1.511,0.225 2.921,-0.814 3.148,-2.325 0.225,-1.511 -0.817,-2.923 -2.325,-3.148 z m -73.833,-23.117 c -1.332,0.741 -1.81,2.423 -1.072,3.755 0.74,1.331 2.423,1.811 3.754,1.071 l 21.097,-11.719 c 1.331,-0.74 1.81,-2.423 1.07,-3.755 -0.738,-1.331 -2.421,-1.81 -3.753,-1.069 z m -33.899,-22.933 c -0.729,1.338 -0.235,3.014 1.103,3.743 1.339,0.726 3.016,0.232 3.743,-1.105 l 11.134,-20.51 c 0.727,-1.338 0.233,-3.015 -1.104,-3.744 -1.337,-0.726 -3.014,-0.232 -3.743,1.105 z"
           style="fill:#6699ff;fill-opacity:1;fill-rule:evenodd;stroke:none"
           id="path41369" /><path
           d="m 170.442,459.1 c -0.47,1.449 0.323,3.01 1.775,3.482 1.45,0.47 3.01,-0.325 3.481,-1.775 l 4.102,-12.599 c 0.471,-1.451 -0.323,-3.011 -1.775,-3.482 -1.449,-0.472 -3.01,0.322 -3.481,1.774 z m -16.13,-33.128 c -1.288,0.813 -1.677,2.518 -0.865,3.806 0.813,1.289 2.517,1.677 3.806,0.865 l 12.6,-7.912 c 1.29,-0.812 1.677,-2.517 0.864,-3.806 -0.81,-1.29 -2.516,-1.676 -3.805,-0.864 z m 11.072,-14.643 c 0.978,1.171 2.722,1.326 3.893,0.345 1.171,-0.978 1.324,-2.722 0.345,-3.893 L 159.075,395.18 c -0.981,-1.17 -2.724,-1.323 -3.895,-0.344 -1.17,0.978 -1.325,2.721 -0.346,3.893 z m -45.177,-11.855 c -0.065,1.523 1.116,2.811 2.64,2.875 1.522,0.068 2.81,-1.115 2.875,-2.638 l 1.173,-26.664 c 0.065,-1.526 -1.116,-2.813 -2.638,-2.877 -1.525,-0.065 -2.812,1.115 -2.877,2.639 z M 148.28,370.01 c -1.34,0.734 -1.828,2.416 -1.093,3.754 0.732,1.338 2.415,1.828 3.752,1.093 l 16.722,-9.175 c 1.338,-0.735 1.828,-2.416 1.093,-3.754 -0.734,-1.336 -2.415,-1.826 -3.752,-1.092 z m 7.382,-25.115 c 0.054,1.523 1.332,2.712 2.856,2.662 1.522,-0.055 2.712,-1.334 2.659,-2.856 l -0.879,-22.562 c -0.054,-1.524 -1.332,-2.715 -2.854,-2.66 -1.524,0.052 -2.715,1.332 -2.661,2.855 z m 31.453,-15.061 c 1.447,0.494 3.02,-0.273 3.516,-1.719 0.494,-1.445 -0.273,-3.019 -1.719,-3.515 l -17.029,-5.854 c -1.446,-0.494 -3.02,0.274 -3.516,1.721 -0.494,1.443 0.275,3.019 1.721,3.513 z m 25.319,-23.635 c 1.497,0.266 2.932,-0.73 3.201,-2.228 0.267,-1.5 -0.731,-2.934 -2.229,-3.201 l -26.077,-4.69 c -1.499,-0.267 -2.932,0.731 -3.201,2.229 -0.267,1.5 0.73,2.933 2.228,3.201 z m 37.805,-9.601 c 0.889,1.236 2.614,1.515 3.85,0.625 1.236,-0.889 1.515,-2.614 0.626,-3.848 L 242.702,276.67 c -0.889,-1.236 -2.614,-1.516 -3.849,-0.627 -1.237,0.889 -1.515,2.613 -0.626,3.85 z m 181.838,62.244 c -1.385,0.644 -1.985,2.291 -1.341,3.678 0.645,1.384 2.293,1.986 3.678,1.341 l 21.705,-10.107 c 1.385,-0.645 1.986,-2.293 1.341,-3.678 -0.645,-1.385 -2.293,-1.986 -3.678,-1.342 z M 298.531,291.66 c 1.003,1.147 2.747,1.264 3.894,0.26 1.146,-1.004 1.263,-2.746 0.259,-3.893 l -13.082,-15 c -1.004,-1.146 -2.749,-1.263 -3.896,-0.259 -1.144,1.003 -1.261,2.746 -0.258,3.892 z m 25.917,3.893 c -0.172,1.515 0.918,2.885 2.435,3.058 1.516,0.172 2.886,-0.916 3.059,-2.433 l 2.051,-17.873 c 0.174,-1.516 -0.918,-2.889 -2.432,-3.059 -1.517,-0.174 -2.888,0.914 -3.06,2.432 z m 34.919,-0.151 c 1.361,0.678 3.019,0.127 3.699,-1.234 0.679,-1.361 0.126,-3.02 -1.234,-3.699 l -16.995,-8.498 c -1.36,-0.68 -3.02,-0.127 -3.699,1.232 -0.679,1.363 -0.127,3.022 1.234,3.699 z m 28.382,25.473 c 0.704,1.348 2.372,1.873 3.721,1.168 1.348,-0.705 1.873,-2.371 1.169,-3.719 l -9.378,-17.875 c -0.704,-1.349 -2.371,-1.871 -3.72,-1.168 -1.349,0.705 -1.871,2.371 -1.168,3.721 z m 14.365,31.559 c -0.962,1.185 -0.782,2.923 0.401,3.884 1.182,0.961 2.921,0.782 3.881,-0.402 l 8.792,-10.842 c 0.96,-1.181 0.781,-2.92 -0.402,-3.881 -1.182,-0.963 -2.92,-0.783 -3.882,0.401 z m 13.078,44.916 c -0.59,1.404 0.068,3.022 1.471,3.612 1.402,0.592 3.023,-0.066 3.613,-1.47 l 3.223,-7.617 c 0.591,-1.404 -0.067,-3.021 -1.469,-3.613 -1.404,-0.592 -3.022,0.066 -3.613,1.47 z m 1.769,33.156 c 0.89,1.237 2.613,1.517 3.85,0.626 1.236,-0.889 1.516,-2.614 0.626,-3.847 l -9.476,-13.135 c -0.889,-1.234 -2.613,-1.515 -3.848,-0.626 -1.236,0.89 -1.516,2.614 -0.627,3.85 z m -51.567,21.415 c -1.522,0.102 -2.674,1.419 -2.574,2.942 0.102,1.522 1.419,2.675 2.942,2.573 l 21.096,-1.465 c 1.523,-0.1 2.675,-1.417 2.574,-2.941 -0.101,-1.523 -1.419,-2.675 -2.942,-2.573 z m 2.802,19.941 c 0.219,1.511 1.625,2.556 3.136,2.337 1.511,-0.222 2.557,-1.627 2.337,-3.136 -0.36,-2.45 -0.671,-3.673 -0.979,-4.89 -0.2,-0.796 -0.402,-1.594 -0.588,-2.615 -0.274,-1.498 -1.714,-2.489 -3.211,-2.217 -1.499,0.273 -2.492,1.713 -2.219,3.213 0.248,1.354 0.452,2.155 0.654,2.96 0.273,1.078 0.548,2.165 0.87,4.348 m -36.489,30.625 c -0.622,1.393 0.002,3.024 1.395,3.646 1.39,0.621 3.021,-0.004 3.643,-1.395 l 6.445,-14.359 c 0.623,-1.39 -0.002,-3.021 -1.394,-3.643 -1.391,-0.622 -3.022,0.004 -3.644,1.394 z m -58.624,-6.026 c -1.522,0.107 -2.671,1.429 -2.562,2.951 0.107,1.523 1.429,2.671 2.952,2.564 l 19.924,-1.465 c 1.525,-0.109 2.671,-1.431 2.565,-2.953 -0.109,-1.522 -1.432,-2.671 -2.953,-2.564 z m -48.41,-8.445 c -1.494,0.305 -2.457,1.763 -2.152,3.256 0.305,1.492 1.763,2.455 3.254,2.152 l 28.422,-5.862 c 1.494,-0.304 2.457,-1.761 2.153,-3.255 -0.306,-1.491 -1.761,-2.455 -3.255,-2.151 z m -27.564,-33.125 c -1.014,-1.141 -2.762,-1.239 -3.902,-0.226 -1.141,1.014 -1.242,2.764 -0.228,3.905 l 11.834,13.265 c 1.015,1.141 2.764,1.242 3.904,0.227 1.141,-1.013 1.241,-2.762 0.227,-3.902 z"
           style="fill:#ffcc00;fill-opacity:1;fill-rule:evenodd;stroke:none"
           id="path41371" /><path
           d="m 175.658,351.588 c 0.351,1.486 1.843,2.406 3.331,2.057 1.486,-0.354 2.407,-1.846 2.054,-3.334 l -5.021,-21.088 c -0.351,-1.487 -1.842,-2.409 -3.33,-2.055 -1.488,0.35 -2.408,1.844 -2.057,3.33 z m 29.574,-22.672 c 1.038,1.117 2.788,1.18 3.903,0.141 1.116,-1.039 1.179,-2.787 0.141,-3.905 l -14.921,-16.048 c -1.038,-1.116 -2.787,-1.18 -3.903,-0.141 -1.116,1.039 -1.179,2.787 -0.141,3.902 z m 22.192,-22.51 c -0.651,1.377 -0.059,3.026 1.32,3.676 1.377,0.65 3.026,0.061 3.676,-1.32 l 11.171,-23.705 c 0.651,-1.379 0.059,-3.028 -1.32,-3.676 -1.377,-0.651 -3.025,-0.061 -3.676,1.32 z m 61.466,-13.117 c 1.374,0.662 3.025,0.086 3.687,-1.287 0.662,-1.373 0.088,-3.025 -1.285,-3.688 l -19.72,-9.576 c -1.373,-0.662 -3.025,-0.086 -3.689,1.287 -0.662,1.373 -0.086,3.026 1.288,3.688 z m 119.067,80.705 c 0.356,1.481 1.851,2.391 3.331,2.033 1.481,-0.357 2.39,-1.851 2.033,-3.332 l -4.242,-17.427 c -0.357,-1.481 -1.85,-2.391 -3.331,-2.032 -1.48,0.356 -2.391,1.848 -2.033,3.33 z M 376.37,318.391 c -1.154,1.004 -1.274,2.75 -0.27,3.902 1.003,1.154 2.753,1.275 3.905,0.271 l 18.166,-15.822 c 1.152,-1.004 1.274,-2.752 0.27,-3.904 -1.003,-1.154 -2.752,-1.275 -3.904,-0.272 z m 81.754,108.196 c 0.346,1.489 1.833,2.414 3.319,2.069 1.489,-0.346 2.413,-1.833 2.069,-3.322 l -4.69,-19.924 c -0.344,-1.487 -1.833,-2.412 -3.321,-2.067 -1.486,0.346 -2.411,1.833 -2.065,3.32 z m -47.14,38.162 -2.13,-16.163 c -0.195,-1.51 0.87,-2.897 2.38,-3.091 1.511,-0.197 2.898,0.87 3.095,2.379 l 2.129,16.161 c 0.196,1.51 -0.868,2.897 -2.379,3.092 -1.512,0.197 -2.898,-0.868 -3.095,-2.378 m 11.297,-17.282 c 1.111,1.043 2.861,0.991 3.906,-0.118 1.042,-1.11 0.99,-2.86 -0.119,-3.905 l -22.547,-21.251 c -1.11,-1.046 -2.859,-0.992 -3.904,0.118 -1.044,1.108 -0.99,2.859 0.118,3.903 z m -74.303,15.141 c 0.494,-1.441 -0.27,-3.01 -1.71,-3.504 -1.441,-0.496 -3.01,0.267 -3.504,1.707 l -5.275,15.238 c -0.496,1.439 0.269,3.01 1.707,3.504 1.441,0.496 3.01,-0.268 3.506,-1.709 z m 38.576,22.543 c 0,1.527 1.239,2.769 2.767,2.769 1.529,0 2.768,-1.242 2.768,-2.769 V 470.5 c 0,-1.528 -1.239,-2.768 -2.768,-2.768 -1.528,0 -2.767,1.24 -2.767,2.768 z m -17.053,18.305 c -1.219,0.914 -1.465,2.642 -0.553,3.861 0.913,1.217 2.644,1.465 3.861,0.552 1.932,-1.45 1.968,-1.464 2.148,-1.519 0.44,-0.137 1.112,-0.345 2.705,-1.142 1.365,-0.68 1.923,-2.343 1.243,-3.709 -0.678,-1.366 -2.342,-1.923 -3.708,-1.244 -1.224,0.613 -1.623,0.737 -1.883,0.817 -0.919,0.288 -1.09,0.341 -3.813,2.384 m -45.997,9.52 c -1.463,0.421 -2.305,1.953 -1.883,3.416 0.424,1.463 1.955,2.306 3.419,1.883 l 26.371,-7.619 c 1.463,-0.422 2.306,-1.954 1.883,-3.417 -0.424,-1.463 -1.955,-2.306 -3.419,-1.883 z m -38.426,-13.951 c -1.223,-0.906 -2.953,-0.65 -3.858,0.574 -0.908,1.223 -0.652,2.953 0.572,3.861 l 16.224,12.037 c 1.223,0.908 2.953,0.651 3.859,-0.574 0.908,-1.223 0.65,-2.953 -0.572,-3.859 z m -97.2,-14.546 c -1.27,-0.834 -2.981,-0.48 -3.817,0.79 -0.833,1.273 -0.48,2.983 0.79,3.818 l 15.79,10.39 c 1.27,0.836 2.981,0.481 3.817,-0.79 0.835,-1.27 0.482,-2.981 -0.79,-3.817 z m -35.628,4.071 c -0.872,1.249 -0.567,2.968 0.681,3.84 1.247,0.872 2.968,0.567 3.84,-0.682 l 15.099,-21.599 c 0.869,-1.248 0.566,-2.969 -0.683,-3.84 -1.248,-0.872 -2.967,-0.566 -3.838,0.681 z m -18.848,-31.108 c -0.525,1.433 0.212,3.021 1.644,3.547 1.433,0.524 3.022,-0.212 3.547,-1.645 l 6.054,-16.356 c 0.525,-1.435 -0.211,-3.024 -1.644,-3.548 -1.433,-0.524 -3.022,0.212 -3.548,1.644 z m -16.362,-42.72 c -1.127,1.027 -1.209,2.776 -0.183,3.905 1.026,1.127 2.776,1.209 3.905,0.183 l 22.81,-20.751 c 1.129,-1.026 1.211,-2.778 0.185,-3.905 -1.028,-1.129 -2.778,-1.211 -3.905,-0.185 z m -4.517,-71.757 c -0.202,-1.512 -1.593,-2.572 -3.104,-2.369 -1.511,0.201 -2.571,1.592 -2.369,3.103 l 3.13,23.352 c 0.202,1.51 1.593,2.57 3.104,2.369 1.509,-0.203 2.571,-1.594 2.367,-3.104 z"
           style="fill:#ff99ff;fill-opacity:1;fill-rule:evenodd;stroke:none"
           id="path41373" /><path
           d="m 554.968,506.31 c -58.933,11.4 -111.67,-10.801 -117.795,-49.587 -6.126,-38.784 36.681,-79.467 95.612,-90.868 58.933,-11.396 111.67,10.803 117.795,49.591 6.126,38.784 -36.682,79.464 -95.612,90.864 m 13.452,85.191 C 688.96,568.187 774.632,473 759.771,378.898 744.911,284.799 635.147,227.416 514.605,250.734 394.063,274.051 308.394,369.236 323.254,463.336 c 14.86,94.101 124.624,151.482 245.166,128.165"
           style="fill:#fcb874;fill-opacity:1;fill-rule:evenodd;stroke:none"
           id="path41375" /><path
           d="m 554.968,506.31 c -58.933,11.4 -111.67,-10.801 -117.795,-49.587 -6.126,-38.784 36.681,-79.467 95.612,-90.868 58.933,-11.396 111.67,10.805 117.795,49.591 6.126,38.784 -36.682,79.464 -95.612,90.864 m 13.452,85.191 c 50.436,-9.755 94.759,-32.098 128.175,-61.673 1.033,-2.948 3.132,-5.752 7.225,-8.522 14.079,-9.531 -12.125,-31.445 6.361,-46.933 79.377,-66.5 -10.233,-45.173 5.12,-63.206 24.593,-28.89 25.23,-51.372 -8.462,-45.036 -26.519,4.984 -27.245,-1.434 -15.914,-18.186 23.96,-35.418 -20.279,-25.398 -34.204,-15.103 -21.183,15.658 -17.8,-2.192 -21.749,-27.194 -3.398,-21.513 -26.072,15.659 -48.897,11.268 -25.469,-4.9 9.394,-21.598 6.213,-32.742 -6.391,-22.408 -38.33,19.127 -43.391,22.748 -15.322,10.951 -18.811,-1.461 -26.022,-15.207 -8.002,-15.248 -24.326,1.814 -23.086,10.695 10.044,71.91 -36.726,-30.861 -40.86,23.553 -4.109,54.127 -26.934,-18.393 -34.736,20.976 -8.701,43.907 -27.031,20.383 -41.642,26.02 -4.655,1.795 0.378,35.977 -11.009,34.244 -13.542,-2.063 -18.216,-7.553 -25.849,3.765 -6.642,9.847 18.703,22.998 7.195,27.228 -37.432,13.756 3.962,22.433 0.176,31.251 -5.01,11.68 -16.43,15.746 -7.203,25.162 12.816,13.084 21.563,14.864 26.001,17.468 9.966,5.845 1.683,18.632 5.83,25.886 8.03,14.046 23.162,9.317 20.729,15.508 -2.447,6.232 -2.117,10.114 -0.388,13.452 45.341,26.576 106.342,36.969 170.387,24.578"
           style="fill:#381c00;fill-opacity:1;fill-rule:evenodd;stroke:none"
           id="path41377" /><path
           d="m 410.808,422.952 c -5.703,11.144 -9.27,23.359 -9.978,36.575 -0.3,5.608 -0.017,11.208 0.853,16.713 0.87,5.504 2.318,10.88 4.319,16.042 22.369,57.7 98.285,70.055 153.41,59.392 55.123,-10.664 122.755,-50.785 126.114,-113.461 0.298,-5.606 0.016,-11.208 -0.854,-16.713 -0.508,-3.21 -1.214,-6.379 -2.11,-9.485 -0.553,-1.923 -0.077,-3.878 1.316,-5.392 1.389,-1.515 3.305,-2.16 5.272,-1.777 1.062,0.208 2.141,0.376 3.229,0.514 1.785,0.223 3.197,1.188 4.032,2.76 0.84,1.572 0.866,3.312 0.084,4.969 -3.491,7.393 -4.43,15.629 -1.927,23.73 1.469,4.763 3.572,8.477 6.147,11.436 5.086,5.839 4.368,14.901 -1.603,20.265 -9.148,8.216 -14.959,18.866 -16.371,31.054 -0.744,6.444 -0.187,12.646 1.137,18.813 0.836,3.913 0.13,7.638 -2.107,11.072 -0.102,0.155 -0.201,0.308 -0.298,0.462 -33.372,28.107 -74.728,46.314 -116.895,54.469 -46.017,8.901 -95.762,6.169 -138.51,-11.868 -4.135,-1.745 -6.909,-5 -7.991,-9.381 -0.45,-1.822 -1.072,-3.612 -1.871,-5.344 -2.977,-6.459 -7.587,-10.915 -13.313,-13.964 -4.134,-2.199 -6.661,-5.934 -7.197,-10.639 -1.381,-12.119 -6.965,-22.429 -18.788,-29.362 -0.038,-0.025 -0.076,-0.048 -0.112,-0.069 -5.28,-3.084 -7.805,-8.956 -6.481,-15.076 0.403,-1.861 0.645,-3.754 0.718,-5.654 0.156,-4.098 -0.382,-7.75 -1.454,-11.061 -1.196,-3.685 -0.914,-7.325 0.842,-10.89 0.801,-1.629 1.479,-3.344 2.017,-5.133 0.424,-1.416 0.75,-2.793 0.987,-4.131 0.746,-4.227 3.009,-7.634 6.64,-9.997 9.118,-5.937 13.832,-14.81 16.333,-24.598 0.714,-2.787 2.969,-4.794 5.808,-5.172 0.282,-0.038 0.563,-0.078 0.843,-0.12 2.925,-0.438 5.608,0.688 7.277,3.055 1.667,2.367 1.845,5.303 0.482,7.966"
           style="fill:#663300;fill-opacity:1;fill-rule:evenodd;stroke:none"
           id="path41379" /><path
           d="m 554.968,506.31 c 54.146,-10.473 94.674,-45.667 96.148,-81.397 1.515,3.543 2.608,7.266 3.221,11.16 6.125,38.786 -36.681,79.468 -95.613,90.866 -58.931,11.4 -111.67,-10.801 -117.793,-49.587 -0.498,-3.147 -0.668,-6.31 -0.538,-9.47 13.563,31.743 61.557,48.683 114.575,38.428 M 760.695,386.082 c -0.248,-2.394 -0.546,-4.789 -0.924,-7.184 C 744.911,284.799 635.147,227.416 514.605,250.734 394.063,274.051 308.394,369.236 323.254,463.336 c 0.722,4.574 1.675,9.054 2.835,13.448 -9.542,-91.714 74.799,-182.696 192.274,-205.421 114.684,-22.183 219.608,28.682 242.332,114.719"
           style="fill:#eb9e50;fill-opacity:1;fill-rule:evenodd;stroke:none"
           id="path41381" /><path
           d="m 475.837,572 c -1.517,-0.1 -2.873,1.055 -3.027,2.577 -0.156,1.522 0.949,2.839 2.465,2.938 l 30.971,2.129 c 1.517,0.099 2.873,-1.055 3.027,-2.58 0.156,-1.522 -0.949,-2.838 -2.465,-2.938 z m -40.383,-15.713 13.542,-11.999 c 1.162,-1.029 2.907,-0.949 3.892,0.177 0.986,1.127 0.843,2.876 -0.319,3.905 l -13.541,11.999 c -1.161,1.03 -2.907,0.95 -3.892,-0.178 -0.987,-1.127 -0.844,-2.875 0.318,-3.904 m 28.712,-29.075 c 1.179,0.919 2.917,0.681 3.88,-0.532 0.963,-1.213 0.788,-2.944 -0.391,-3.865 l -17.688,-13.783 c -1.179,-0.919 -2.916,-0.681 -3.88,0.532 -0.961,1.214 -0.786,2.946 0.392,3.865 z m 74.105,31.303 c -1.125,1.062 -1.208,2.812 -0.186,3.899 1.022,1.091 2.768,1.11 3.894,0.047 l 19.724,-18.647 c 1.128,-1.062 1.212,-2.81 0.19,-3.899 -1.023,-1.091 -2.769,-1.11 -3.894,-0.048 z m -20.066,5.583 c 1.124,0.99 2.871,0.853 3.905,-0.307 1.033,-1.16 0.958,-2.907 -0.164,-3.899 l -14.902,-13.134 c -1.124,-0.992 -2.873,-0.855 -3.905,0.307 -1.033,1.16 -0.958,2.907 0.166,3.897 z M 407.477,527.771 c 0.421,1.448 1.953,2.234 3.416,1.759 1.461,-0.477 2.304,-2.037 1.882,-3.486 l -4.48,-15.15 c -0.424,-1.448 -1.953,-2.234 -3.417,-1.759 -1.463,0.475 -2.306,2.039 -1.885,3.486 z M 395.46,498.193 c -1.473,0.443 -2.354,1.986 -1.965,3.445 0.388,1.46 1.901,2.286 3.373,1.843 l 18.786,-5.71 c 1.473,-0.442 2.355,-1.985 1.965,-3.444 -0.387,-1.46 -1.899,-2.286 -3.372,-1.843 z m 27.225,-20.2 c 1.176,0.92 2.914,0.679 3.878,-0.533 0.962,-1.212 0.788,-2.945 -0.392,-3.864 l -17.016,-13.317 c -1.178,-0.922 -2.917,-0.683 -3.88,0.532 -0.963,1.211 -0.788,2.943 0.389,3.865 z m -15.302,-41.398 c 1.286,-0.872 1.658,-2.595 0.836,-3.851 -0.824,-1.253 -2.537,-1.565 -3.822,-0.695 l -18.269,12.406 c -1.286,0.872 -1.657,2.596 -0.836,3.851 0.826,1.256 2.537,1.567 3.821,0.694 z m 20.642,-15.328 c 0.628,1.366 2.265,1.922 3.652,1.242 1.388,-0.676 2.003,-2.339 1.375,-3.703 l -7.266,-15.797 c -0.63,-1.363 -2.266,-1.921 -3.653,-1.241 -1.389,0.679 -2.005,2.336 -1.375,3.702 z m 15.957,-30.138 c 1.529,-0.031 2.788,-1.293 2.815,-2.822 0.026,-1.528 -1.191,-2.744 -2.719,-2.715 l -33.906,0.627 c -1.528,0.029 -2.789,1.293 -2.816,2.82 -0.025,1.529 1.191,2.746 2.718,2.715 z m 19.174,-11.76 c 1.164,0.944 2.907,0.735 3.89,-0.467 0.984,-1.199 0.84,-2.935 -0.324,-3.877 l -13.67,-11 c -1.164,-0.943 -2.906,-0.73 -3.89,0.467 -0.984,1.197 -0.838,2.936 0.324,3.879 z m 48.934,-26.902 c 1.519,-0.154 2.672,-1.512 2.571,-3.026 -0.098,-1.515 -1.412,-2.619 -2.931,-2.464 l -31.717,3.168 c -1.519,0.156 -2.671,1.511 -2.572,3.025 0.099,1.518 1.412,2.621 2.932,2.467 z m 42.64,-6.074 2.781,-12.454 c 0.333,-1.501 1.813,-2.492 3.303,-2.214 1.492,0.279 2.429,1.726 2.097,3.23 l -2.777,12.451 c -0.334,1.502 -1.817,2.494 -3.307,2.215 -1.489,-0.279 -2.428,-1.726 -2.097,-3.228 m -25.775,-13.987 c -1.438,0.555 -2.194,2.158 -1.692,3.578 0.504,1.42 2.077,2.12 3.515,1.565 l 24.166,-9.42 c 1.439,-0.555 2.197,-2.16 1.695,-3.578 -0.504,-1.42 -2.079,-2.119 -3.518,-1.565 z m 88.155,17.99 -8.841,-22.896 c -0.54,-1.406 0.179,-3.027 1.606,-3.617 1.427,-0.59 3.021,0.072 3.558,1.48 l 8.843,22.895 c 0.538,1.406 -0.18,3.025 -1.607,3.617 -1.426,0.588 -3.021,-0.072 -3.559,-1.479 m -11.503,7.086 c 1.313,0.733 3.009,0.237 3.789,-1.105 0.779,-1.34 0.345,-3.022 -0.967,-3.754 l -18.544,-10.336 c -1.313,-0.73 -3.01,-0.234 -3.788,1.108 -0.781,1.339 -0.346,3.023 0.966,3.753 z m 64.283,24.2 c 0.04,1.521 1.308,2.681 2.831,2.586 1.521,-0.098 2.725,-1.409 2.685,-2.932 l -0.616,-26.572 c -0.04,-1.524 -1.309,-2.68 -2.831,-2.586 -1.522,0.097 -2.728,1.408 -2.688,2.931 z m -32.329,-13.379 c -1.489,0.39 -2.423,1.904 -2.087,3.381 0.336,1.476 1.816,2.355 3.303,1.964 l 15.517,-4.111 c 1.49,-0.391 2.423,-1.904 2.088,-3.381 -0.336,-1.476 -1.817,-2.355 -3.307,-1.965 z m 73.512,56.541 c 1.297,0.752 3.003,0.286 3.8,-1.041 0.802,-1.328 0.394,-3.014 -0.903,-3.767 l -16.025,-9.35 c -1.301,-0.752 -3.003,-0.284 -3.799,1.041 -0.802,1.328 -0.398,3.015 0.9,3.768 z m -44.562,-16.037 c -1.147,1.043 -1.267,2.792 -0.265,3.902 1.003,1.113 2.749,1.166 3.896,0.124 l 15.64,-14.296 c 1.149,-1.045 1.267,-2.793 0.263,-3.904 -0.999,-1.112 -2.747,-1.166 -3.892,-0.121 z m 1.812,39.187 c -1.293,0.854 -1.686,2.573 -0.881,3.838 0.809,1.262 2.514,1.594 3.807,0.742 l 11.34,-7.533 c 1.293,-0.855 1.685,-2.574 0.881,-3.838 -0.809,-1.265 -2.514,-1.597 -3.81,-0.743 z m 1.619,54.15 c 0.696,1.33 2.359,1.801 3.711,1.055 1.355,-0.744 1.887,-2.427 1.191,-3.755 l -7.665,-14.533 c -0.695,-1.328 -2.358,-1.802 -3.711,-1.058 -1.354,0.746 -1.886,2.427 -1.19,3.757 z m -49.182,35.001 c -1.399,0.649 -2.045,2.295 -1.446,3.674 0.601,1.376 2.222,1.963 3.621,1.313 l 21.67,-10.124 c 1.399,-0.651 2.045,-2.295 1.447,-3.672 -0.6,-1.378 -2.221,-1.965 -3.621,-1.315 z m -36.484,23.023 c -0.302,1.506 0.661,2.927 2.153,3.175 1.493,0.248 2.949,-0.769 3.254,-2.272 l 5.352,-26.543 c 0.302,-1.503 -0.661,-2.926 -2.153,-3.174 -1.492,-0.249 -2.949,0.769 -3.253,2.271 z m -47.502,8.579 c -1.528,0.069 -2.76,1.36 -2.749,2.886 0.012,1.529 1.259,2.715 2.786,2.648 l 23.124,-0.913 c 1.528,-0.067 2.76,-1.359 2.749,-2.885 -0.011,-1.528 -1.259,-2.714 -2.786,-2.648 z m -76.525,-8.596 c -1.201,0.981 -1.413,2.724 -0.477,3.892 0.939,1.165 2.673,1.314 3.873,0.334 l 19.025,-15.544 c 1.2,-0.98 1.413,-2.724 0.476,-3.891 -0.938,-1.166 -2.673,-1.315 -3.875,-0.334 z m -37.046,-16.048 c -0.514,1.451 0.236,3.004 1.669,3.462 1.435,0.459 3.016,-0.346 3.525,-1.799 l 7.82,-22.274 c 0.51,-1.453 -0.237,-3.006 -1.671,-3.466 -1.435,-0.458 -3.014,0.347 -3.525,1.801 z"
           style="fill:#6699ff;fill-opacity:1;fill-rule:evenodd;stroke:none"
           id="path41383" /><path
           d="m 441.587,540.865 c -0.24,1.515 0.784,2.896 2.293,3.081 1.505,0.185 2.923,-0.893 3.163,-2.407 l 2.099,-13.162 c 0.24,-1.514 -0.788,-2.895 -2.291,-3.08 -1.508,-0.185 -2.927,0.894 -3.167,2.407 z m -21.074,-29.456 c -1.148,1.044 -1.267,2.793 -0.263,3.903 1,1.11 2.745,1.166 3.894,0.122 l 11.218,-10.179 c 1.149,-1.044 1.267,-2.793 0.266,-3.903 -1.002,-1.112 -2.747,-1.167 -3.896,-0.124 z m 8.667,-16.499 c 1.146,0.962 2.893,0.78 3.899,-0.405 1.003,-1.186 0.887,-2.927 -0.264,-3.891 L 420.44,480.251 c -1.148,-0.96 -2.895,-0.778 -3.898,0.407 -1.006,1.184 -0.888,2.928 0.261,3.889 z m -46.47,-3.012 c 0.171,1.509 1.539,2.547 3.054,2.321 1.514,-0.228 2.603,-1.635 2.432,-3.143 l -2.98,-26.415 c -0.17,-1.509 -1.537,-2.549 -3.052,-2.322 -1.515,0.227 -2.602,1.633 -2.433,3.142 z m 23.162,-34.305 c -1.209,0.977 -1.431,2.722 -0.496,3.895 0.931,1.174 2.667,1.334 3.875,0.357 l 15.097,-12.207 c 1.207,-0.976 1.43,-2.722 0.498,-3.897 -0.932,-1.173 -2.669,-1.334 -3.877,-0.357 z m 3.398,-26.082 c 0.288,1.489 1.738,2.411 3.233,2.069 1.498,-0.344 2.475,-1.829 2.185,-3.312 l -4.37,-21.993 c -0.288,-1.486 -1.735,-2.411 -3.231,-2.068 -1.495,0.343 -2.474,1.828 -2.186,3.313 z m 28.736,-20.804 c 1.506,0.211 2.942,-0.843 3.207,-2.358 0.266,-1.515 -0.738,-2.915 -2.243,-3.125 l -17.732,-2.495 c -1.505,-0.21 -2.941,0.845 -3.205,2.359 -0.264,1.513 0.738,2.913 2.243,3.125 z m 21.347,-28.055 c 1.52,-0.021 2.783,-1.277 2.815,-2.798 0.031,-1.524 -1.177,-2.741 -2.699,-2.717 l -26.488,0.377 c -1.522,0.023 -2.785,1.279 -2.815,2.8 -0.032,1.522 1.175,2.741 2.697,2.717 z M 495.211,366 c 1.07,1.043 2.815,0.99 3.9,-0.121 1.082,-1.109 1.092,-2.858 0.022,-3.9 l -14.458,-14.114 c -1.071,-1.043 -2.818,-0.99 -3.902,0.121 -1.083,1.108 -1.09,2.858 -0.022,3.901 z m 189.293,26.391 c -1.271,0.898 -1.607,2.63 -0.756,3.869 0.852,1.236 2.572,1.511 3.843,0.613 l 19.873,-14.074 c 1.266,-0.897 1.606,-2.629 0.756,-3.867 -0.855,-1.239 -2.575,-1.514 -3.842,-0.618 z M 542.152,351.924 c 1.169,0.933 2.911,0.715 3.888,-0.49 0.977,-1.205 0.82,-2.942 -0.348,-3.875 l -15.253,-12.235 c -1.169,-0.931 -2.909,-0.713 -3.886,0.49 -0.979,1.204 -0.822,2.94 0.347,3.875 z m 26.207,-1.133 c 0.067,1.523 1.355,2.662 2.878,2.541 1.527,-0.119 2.711,-1.451 2.647,-2.975 l -0.746,-17.947 c -0.065,-1.525 -1.355,-2.662 -2.879,-2.541 -1.524,0.119 -2.711,1.451 -2.646,2.973 z m 34.473,-6.82 c 1.45,0.41 3.003,-0.453 3.464,-1.918 0.46,-1.467 -0.343,-2.99 -1.795,-3.397 l -18.107,-5.099 c -1.448,-0.409 -3,0.451 -3.462,1.918 -0.46,1.466 0.341,2.99 1.793,3.398 z m 31.991,19.597 c 0.906,1.192 2.633,1.385 3.856,0.438 1.224,-0.949 1.484,-2.688 0.578,-3.879 l -12.035,-15.764 c -0.907,-1.189 -2.635,-1.384 -3.858,-0.435 -1.222,0.951 -1.482,2.685 -0.576,3.877 z m 19.084,28.254 c -0.766,1.348 -0.318,3.022 1,3.741 1.316,0.716 3.006,0.207 3.773,-1.137 l 7.003,-12.33 c 0.767,-1.346 0.319,-3.02 -0.999,-3.737 -1.317,-0.718 -3.007,-0.211 -3.774,1.135 z m 19.889,41.62 c -0.368,1.492 0.534,2.955 2.013,3.267 1.478,0.314 2.974,-0.642 3.34,-2.133 l 2.003,-8.101 c 0.369,-1.491 -0.534,-2.955 -2.012,-3.266 -1.479,-0.314 -2.975,0.643 -3.341,2.133 z m 6.889,32.229 c 1.072,1.044 2.819,0.991 3.903,-0.12 1.079,-1.11 1.091,-2.855 0.018,-3.901 l -11.395,-11.087 c -1.07,-1.043 -2.818,-0.99 -3.899,0.12 -1.084,1.109 -1.093,2.856 -0.024,3.9 z m -47.621,30.891 c -1.488,0.389 -2.42,1.904 -2.085,3.38 0.336,1.477 1.816,2.356 3.304,1.967 l 20.614,-5.471 c 1.49,-0.389 2.423,-1.905 2.087,-3.38 -0.336,-1.476 -1.816,-2.358 -3.305,-1.967 z m 5.861,19.05 c 0.452,1.442 2.003,2.201 3.462,1.696 1.458,-0.506 2.274,-2.085 1.822,-3.528 -0.736,-2.337 -1.234,-3.479 -1.725,-4.614 -0.322,-0.744 -0.646,-1.49 -0.986,-2.457 -0.504,-1.417 -2.081,-2.118 -3.518,-1.563 -1.438,0.556 -2.196,2.158 -1.692,3.579 0.454,1.282 0.78,2.032 1.105,2.781 0.435,1.01 0.876,2.025 1.532,4.106 m -31.297,37.055 c -0.397,1.487 0.473,2.971 1.941,3.314 1.472,0.346 2.989,-0.582 3.387,-2.066 l 4.142,-15.335 c 0.396,-1.484 -0.474,-2.969 -1.945,-3.314 -1.47,-0.343 -2.985,0.582 -3.383,2.066 z m -58.847,5.283 c -1.49,0.397 -2.417,1.913 -2.076,3.39 0.344,1.474 1.828,2.348 3.316,1.952 l 19.456,-5.247 c 1.488,-0.397 2.415,-1.915 2.076,-3.39 -0.344,-1.476 -1.828,-2.35 -3.316,-1.953 z m -49.135,0.956 c -1.427,0.585 -2.154,2.201 -1.62,3.609 0.531,1.408 2.121,2.075 3.548,1.49 l 27.169,-11.187 c 1.427,-0.583 2.153,-2.201 1.621,-3.607 -0.534,-1.41 -2.123,-2.077 -3.55,-1.492 z m -32.367,-27.27 c -1.178,-0.925 -2.923,-0.691 -3.891,0.523 -0.972,1.215 -0.8,2.951 0.379,3.878 l 13.751,10.77 c 1.176,0.927 2.921,0.693 3.891,-0.522 0.969,-1.214 0.797,-2.952 -0.382,-3.879 z"
           style="fill:#ffcc00;fill-opacity:1;fill-rule:evenodd;stroke:none"
           id="path41385" /><path
           d="m 430.061,434.266 c 0.578,1.393 2.196,2.013 3.609,1.381 1.416,-0.629 2.093,-2.27 1.515,-3.664 l -8.232,-19.756 c -0.578,-1.393 -2.195,-2.013 -3.611,-1.381 -1.413,0.63 -2.091,2.27 -1.513,3.664 z m 25.7,-27.922 c 1.2,0.899 2.937,0.626 3.878,-0.606 0.942,-1.235 0.732,-2.963 -0.467,-3.862 l -17.229,-12.915 c -1.199,-0.897 -2.937,-0.625 -3.878,0.609 -0.942,1.235 -0.734,2.963 0.466,3.862 z m 18.431,-26.35 c -0.429,1.479 0.411,2.985 1.873,3.36 1.465,0.375 3.001,-0.522 3.428,-2 l 7.361,-25.42 c 0.428,-1.479 -0.413,-2.985 -1.875,-3.36 -1.464,-0.375 -2.998,0.52 -3.427,1.998 z m 58.689,-24.629 c 1.459,0.387 3.003,-0.494 3.443,-1.969 0.441,-1.476 -0.386,-2.99 -1.843,-3.376 l -20.966,-5.637 c -1.46,-0.391 -3.003,0.492 -3.444,1.967 -0.442,1.476 0.383,2.988 1.843,3.377 z m 130.142,56.519 c 0.584,1.385 2.201,1.995 3.608,1.36 1.406,-0.635 2.074,-2.274 1.492,-3.661 l -6.894,-16.308 c -0.584,-1.384 -2.198,-1.996 -3.606,-1.361 -1.407,0.637 -2.075,2.275 -1.491,3.662 z m -39.827,-48.581 c -0.984,1.205 -0.834,2.947 0.338,3.886 1.169,0.942 2.916,0.725 3.899,-0.48 l 15.492,-19.014 c 0.984,-1.207 0.832,-2.947 -0.338,-3.886 -1.171,-0.942 -2.916,-0.727 -3.9,0.48 z m 97.545,90.655 c 0.576,1.395 2.187,2.019 3.602,1.395 1.416,-0.624 2.098,-2.261 1.526,-3.655 l -7.722,-18.676 c -0.573,-1.396 -2.186,-2.02 -3.602,-1.396 -1.415,0.624 -2.098,2.262 -1.525,3.657 z m -40.647,46.49 -4.612,-15.467 c -0.428,-1.446 0.409,-3.013 1.872,-3.493 1.461,-0.481 2.997,0.302 3.424,1.747 l 4.611,15.468 c 0.427,1.445 -0.409,3.011 -1.869,3.49 -1.463,0.483 -2.999,-0.299 -3.426,-1.745 m 8.481,-19.134 c 1.259,0.812 2.98,0.428 3.838,-0.862 0.858,-1.289 0.534,-2.998 -0.725,-3.812 l -25.57,-16.565 c -1.258,-0.815 -2.978,-0.43 -3.836,0.862 -0.861,1.287 -0.536,2.997 0.723,3.812 z m -71.058,29.071 c 0.263,-1.507 -0.735,-2.904 -2.234,-3.115 -1.499,-0.212 -2.929,0.839 -3.197,2.348 l -2.846,15.974 c -0.267,1.51 0.733,2.906 2.23,3.117 1.5,0.21 2.933,-0.839 3.199,-2.35 z m 41.606,14.773 c 0.236,1.501 1.653,2.482 3.162,2.19 1.511,-0.292 2.543,-1.748 2.307,-3.249 l -2.272,-14.39 c -0.237,-1.501 -1.656,-2.483 -3.165,-2.191 -1.51,0.292 -2.543,1.747 -2.304,3.248 z m -14.008,21.239 c -1.062,1.129 -1.038,2.873 0.053,3.895 1.092,1.023 2.839,0.936 3.901,-0.194 1.683,-1.793 1.717,-1.812 1.887,-1.9 0.412,-0.219 1.044,-0.553 2.493,-1.64 1.246,-0.932 1.538,-2.669 0.655,-3.881 -0.883,-1.213 -2.612,-1.442 -3.858,-0.513 -1.115,0.834 -1.487,1.032 -1.733,1.162 -0.863,0.458 -1.025,0.544 -3.398,3.071 m -43.962,18.138 c -1.381,0.694 -1.976,2.36 -1.33,3.716 0.646,1.356 2.288,1.893 3.669,1.196 l 24.87,-12.522 c 1.379,-0.694 1.975,-2.359 1.327,-3.716 -0.642,-1.356 -2.287,-1.89 -3.666,-1.198 z m -40.125,-6.358 c -1.348,-0.658 -3.018,-0.074 -3.723,1.301 -0.706,1.376 -0.186,3.023 1.165,3.682 l 17.893,8.723 c 1.351,0.659 3.021,0.075 3.724,-1.3 0.708,-1.374 0.185,-3.026 -1.165,-3.683 z m -98.28,4.286 c -1.387,-0.578 -3.021,0.096 -3.649,1.505 -0.627,1.408 -0.013,3.022 1.374,3.598 l 17.209,7.188 c 1.386,0.579 3.021,-0.095 3.649,-1.505 0.627,-1.408 0.013,-3.02 -1.372,-3.598 z m -34.566,10.807 c -0.667,1.393 -0.099,3.024 1.268,3.642 1.368,0.618 3.019,-0.012 3.688,-1.402 l 11.566,-24.103 c 0.666,-1.393 0.099,-3.026 -1.268,-3.642 -1.371,-0.618 -3.02,0.009 -3.688,1.402 z m -23.445,-26.955 c -0.298,1.507 0.677,2.929 2.175,3.171 1.497,0.24 2.951,-0.786 3.248,-2.295 l 3.444,-17.224 c 0.295,-1.508 -0.677,-2.928 -2.175,-3.169 -1.497,-0.242 -2.953,0.786 -3.248,2.293 z m -22.789,-38.834 c -0.956,1.223 -0.764,2.957 0.424,3.869 1.189,0.914 2.93,0.66 3.886,-0.564 l 19.314,-24.743 c 0.956,-1.224 0.768,-2.959 -0.423,-3.873 -1.19,-0.911 -2.93,-0.656 -3.886,0.568 z M 366.354,437.86 c -0.435,-1.445 -1.973,-2.222 -3.436,-1.734 -1.46,0.487 -2.293,2.056 -1.858,3.502 l 6.714,22.339 c 0.436,1.444 1.973,2.22 3.434,1.734 1.462,-0.489 2.293,-2.058 1.858,-3.502 z"
           style="fill:#ff99ff;fill-opacity:1;fill-rule:evenodd;stroke:none"
           id="path41387" /></g></g></g></svg>
